<svg id="screenshot" viewBox="0 0 1024 1024" width="1024" height="1024" version="1.1" xmlns="http://www.w3.org/2000/svg" xmlns:xlink="http://www.w3.org/1999/xlink" style="-webkit-print-color-adjust: exact;"><g id="shape-be0ff540-7943-11ed-989b-535ca11c8048" clip-path="url(#frame-clip-be0ff540-7943-11ed-989b-535ca11c8048-935a2950-7944-11ed-acd9-893791c2efb2)"><defs><clipPath id="frame-clip-be0ff540-7943-11ed-989b-535ca11c8048-935a2950-7944-11ed-acd9-893791c2efb2" class="frame-clip"><rect x="0" y="0" width="1024" height="1024"/></clipPath></defs><rect x="0" y="0" width="1024" height="1024" class="frame-background" style="fill: rgb(255, 255, 255); fill-opacity: 0;"/><g id="shape-fba30cd0-7943-11ed-989b-535ca11c8048"><g id="shape-4ff995c0-7943-11ed-989b-535ca11c8048" xml:space="preserve" width="285.66183mm" xmlns:xlink="http://www.w3.org/1999/xlink" version="1.1" height="278.74518mm"><g id="shape-4ff9e3e0-7943-11ed-989b-535ca11c8048"><g id="shape-4ffaa730-7943-11ed-989b-535ca11c8048"><defs><linearGradient x1="277.66641" y1="132.74493" x2="555.56403" y2="132.74493" xlink:href="#935f5970-7944-11ed-acd9-893791c2efb2-linearGradient51288" id="935f5970-7944-11ed-acd9-893791c2efb2-linearGradient51290" gradientUnits="userSpaceOnUse" gradientTransform="matrix(3.465664060998022,0,0,3.462254677707913,-933.4082154202804,53.19654516562889)"/><linearGradient id="935f5970-7944-11ed-acd9-893791c2efb2-linearGradient51288"><stop offset="0.25515288" id="stop51284" style="stop-color: rgb(137, 2, 205); stop-opacity: 1;"/><stop offset="0.71011645" id="stop56467" style="stop-color: rgb(208, 80, 214); stop-opacity: 1;"/><stop offset="1" id="stop51286" style="stop-color: rgb(234, 77, 224); stop-opacity: 1;"/></linearGradient></defs><rect rx="14.260162" ry="15.005246" x="35.44014514186341" y="36.79331731141178" transform="matrix(1,0,0,1,0,0)" width="950" height="952" style="display: inline; fill: url(&quot;#935f5970-7944-11ed-acd9-893791c2efb2-linearGradient51290&quot;); stroke-linecap: round; stroke-linejoin: round; stroke-opacity: 0.860639; fill-opacity: 1; stroke-width: 13.78; stroke: rgb(246, 222, 93);"/></g><g id="shape-4ffaf550-7943-11ed-989b-535ca11c8048"><path d="M105.18650512731341,665.1509153255511L104.25997640345082,400.83915487844115L209.49018090611133,388.9837994944819L206.65863402544267,659.9638855808153Z" style="stroke-linejoin: round; stroke-dasharray: none; stroke-opacity: 0.860639; fill: rgb(0, 0, 199); fill-opacity: 0.785985; stroke-width: 9.58; stroke: rgb(233, 220, 93); stroke-linecap: round;"/></g><g id="shape-4ffb1c60-7943-11ed-989b-535ca11c8048"><path d="M264.0329215429348,658.9940216255791L266.7958802876164,510.2845853041299L150.0136670206137,511.5811781980674L147.93506545500372,665.3999803244142Z" style="stroke-linejoin: round; stroke-dasharray: none; stroke-opacity: 0.860639; fill: rgb(0, 0, 199); fill-opacity: 0.785985; stroke-width: 9.58; stroke: rgb(233, 220, 93); stroke-linecap: round;"/></g><g id="shape-4ffb1c61-7943-11ed-989b-535ca11c8048"><path d="M261.78458166099296,466.0491866063185L262.56794131110047,684.2644889586936L381.1320604948599,686.2028658907284L388.94088905794064,461.4364612588206Z" style="stroke-linejoin: round; stroke-dasharray: none; stroke-opacity: 0.860639; fill: rgb(0, 0, 199); fill-opacity: 0.785985; stroke-width: 9.58; stroke: rgb(233, 220, 93); stroke-linecap: round;"/></g><g id="shape-4ffb4370-7943-11ed-989b-535ca11c8048"><path d="M239.7911723282092,444.99966087422945L242.668513913815,714.0731699824828L381.9968252558611,715.0163954141972L399.98371751375987,409.8987123495781Z" style="stroke-linejoin: round; stroke-dasharray: none; stroke-opacity: 0.860639; fill: rgb(0, 0, 199); fill-opacity: 0.785985; stroke-width: 9.58; stroke: rgb(233, 220, 93); stroke-linecap: round;"/></g><g id="shape-4ffb4371-7943-11ed-989b-535ca11c8048"><path d="M295.1896019221813,124.20426449589263L292.9428208615118,669.787992925374L376.98760505760094,670.1817858192608L387.73775615940264,124.82994417822215Z" style="stroke-linejoin: round; stroke-dasharray: none; stroke-opacity: 0.860639; fill: rgb(0, 0, 199); fill-opacity: 0.785985; stroke-width: 9.58; stroke: rgb(233, 220, 93); stroke-linecap: round;"/></g><g id="shape-4ffb6a80-7943-11ed-989b-535ca11c8048"><path d="M513.4176519685182,508.75690581667095L509.50206613452514,687.2799421090367L754.336250861144,758.7501654265398L813.841620260418,756.6176286449036L809.5681290622745,481.5850575763843L729.3105877487474,473.4030472006825L730.7452229264784,512.6375740541598Z" style="stroke-linejoin: round; stroke-dasharray: none; stroke-opacity: 0.860639; fill: rgb(0, 0, 199); fill-opacity: 0.785985; stroke-width: 9.58; stroke: rgb(233, 220, 93); stroke-linecap: round;"/></g><g id="shape-4ffb9190-7943-11ed-989b-535ca11c8048"><path d="M511.63325193772545,505.0688039670349L510.5450907681479,466.0261160514856L516.5496356690942,466.4453696928258L515.6527245494076,424.1188688847633L528.2120782604702,424.764982981952L524.8371609247033,386.9495100215772L532.8375513019296,388.32645842008696L533.4564726280319,362.1066377556326L539.1502232077275,361.2225990356101L538.4115844079024,303.64606311813804L541.5684053274192,360.9757406348608L550.6591738644777,360.64128687074117L550.0038454015457,387.0403130927207L559.8529631674076,390.374060226658L554.7766790139597,424.97951142951206L568.3303874944718,424.5634447116636L561.4776013380119,472.6177130436299L571.1643938487039,471.5391126445229L570.3172610883175,507.6466786659703Z" style="stroke-linejoin: round; stroke-dasharray: none; stroke-opacity: 0.860639; fill: rgb(0, 0, 199); fill-opacity: 0.785985; stroke-width: 9.58; stroke: rgb(233, 220, 93); stroke-linecap: round;"/></g><g id="shape-4ffbb8a0-7943-11ed-989b-535ca11c8048"><path d="M594.3105341922167,294.8015744859358L593.954811177847,509.4340231369433L672.3672623523744,512.8679331977537L675.1163995484405,278.4780553752371Z" style="stroke-linejoin: round; stroke-dasharray: none; stroke-opacity: 0.860639; fill: rgb(0, 0, 199); fill-opacity: 0.785985; stroke-width: 9.58; stroke: rgb(233, 220, 93); stroke-linecap: round;"/></g><g id="shape-4ffbb8a1-7943-11ed-989b-535ca11c8048"><path d="M754.2061412456046,724.2314886078511L751.6771096132063,603.0927162891194L744.4932644589542,601.0545055147022L781.247083139478,559.0224140842956L822.1593866487126,605.9114808353543L815.3460213502085,604.1622755248463L814.4171024337281,723.8090826834923Z" style="stroke-linejoin: round; stroke-dasharray: none; stroke-opacity: 0.860639; fill: rgb(0, 0, 199); fill-opacity: 0.785985; stroke-width: 9.58; stroke: rgb(233, 220, 93); stroke-linecap: round;"/></g><g id="shape-4ffbdfb0-7943-11ed-989b-535ca11c8048"><path d="M839.4441165245607,403.30496764812324L832.217663588862,718.7610305153121C832.217663588862,718.7610305153121,929.2054100909234,719.0561673428938,929.2054100909234,715.2074376212522C929.2054100909234,711.3586386186662,924.4090555975322,401.99060419167836,924.4090555975322,401.99060419167836Z" style="stroke-linejoin: round; stroke-dasharray: none; stroke-opacity: 0.860639; fill: rgb(0, 0, 199); fill-opacity: 0.785985; stroke-width: 9.58; stroke: rgb(233, 220, 93); stroke-linecap: round;"/></g><g id="shape-4ffbdfb1-7943-11ed-989b-535ca11c8048"><path d="M983.4501041004573,545.7470071616217L887.8593385822794,542.3923545023963L891.0841241092744,727.4729708426976L997.172477042647,722.6733255043982Z" style="stroke-linejoin: round; stroke-dasharray: none; stroke-opacity: 0.860639; fill: rgb(0, 0, 199); fill-opacity: 0.785985; stroke-width: 9.58; stroke: rgb(233, 220, 93); stroke-linecap: round;"/></g><g id="shape-4ffc06c0-7943-11ed-989b-535ca11c8048"><path d="M345.6117890479228,266.38174779112705L347.5666548449743,652.7438064920952L495.23885149174606,677.0687274818238L491.28183565237924,438.6236661842986L454.27777419692075,449.80720424030915L454.80645709158523,303.15511409040846L403.8721798576122,308.33174476523345L405.47589518269325,265.39294935350244Z" style="stroke-linejoin: round; stroke-dasharray: none; stroke-opacity: 0.860639; fill: rgb(0, 0, 199); fill-opacity: 0.785985; stroke-width: 9.58; stroke: rgb(233, 220, 93); stroke-linecap: round;"/></g><g id="shape-4ffc2dd0-7943-11ed-989b-535ca11c8048"><path d="M41.58351420989868,660.0035142816077C180.75428068201086,603.3471159207811,445.3904145156788,611.5754752489838,650.8884372418579,707.8380234546348C707.2645248974284,734.0941161580731,857.4926341834298,722.5277662380249,987.5559007701595,695.8796819452782L998.4401451418635,769.7262070509532C784.7388774302042,824.1825889892816,532.6426640024022,788.6618672162003,458.0594053229021,767.3383007044185C394.5854501663721,757.7394257134911,187.79346722218094,688.4794377579374,22.320363015548253,767.1924643142647Z" style="stroke-linejoin: round; stroke-opacity: 0.860639; fill: rgb(0, 0, 12); fill-opacity: 0.939603; stroke-width: 8.88; stroke: rgb(246, 222, 93); stroke-linecap: round;"/></g><g id="shape-4ffc7bf0-7943-11ed-989b-535ca11c8048"><path d="M371.3546138670576,984.0675614175452C371.3650060088736,967.0312383715791,365.90947796007885,953.0735526981962,374.4614832249109,931.2277117792019C364.461436919405,917.1751112105649,350.5434838682341,917.6096759408492,350.00170687488117,868.583361303864C350.85032917559465,835.6762285570921,386.3199908918867,809.9222495057393,420.61146084999956,807.835645990931C383.3036370892525,840.955367318792,362.8464634406898,868.2218879710235,385.1932055952252,921.6856125230661C431.00917978233997,881.0610327802506,485.99168122035354,924.121288081481,563.4914945005794,874.3195118221693L599.883216319753,834.5160844851998L607.9209491265726,846.8649280435375L599.1060573142624,870.600649232757C618.050446878636,879.7293837279194,623.5104089079393,896.2837192364486,626.4357968292088,902.842234577146C629.1895412081467,908.1690039888372,637.0567389677617,906.9333783268867,636.9109372180797,911.0809167662201C636.7547086861093,915.5217560880765,644.162054170356,915.110885441135,650.4042327141672,916.436091365541C648.2200123472314,941.5016256620402,635.0910653432215,940.676247118523,619.3141313234898,942.2425853735376C609.1356519429992,943.2530826032744,602.5944914791353,946.2303619526801,593.9004949166206,948.473193999459C579.2116527855214,954.5304963403596,560.0983909166343,973.1487458540669,557.8459288184386,983.8068225793777L534.8652660131129,984.0347568898796L526.214881805754,974.4166564365923C502.54296836728514,979.0156987973678,478.122162549066,978.0608688072925,453.21583586519284,973.5055080826178L440.15755542553313,984.4031583172646Z" style="stroke-dasharray: none; stroke-opacity: 0.70295; stroke-linejoin: round; display: inline; fill: rgb(0, 0, 0); fill-opacity: 1; stroke-width: 0.507; stroke: rgb(0, 22, 98); stroke-linecap: round;"/></g><g id="shape-4ffca300-7943-11ed-989b-535ca11c8048"><path d="M734.6251983545142,983.5769830428753C715.3680053214719,958.3896528442901,717.9082604670316,932.6963639011456,731.133196220951,908.4046631247566C719.562204477558,907.7470137501514,708.4376245061171,907.9130801763768,701.2493453713566,896.627179523477L701.0276463459436,888.613487204726L698.0699388636258,881.3662153449204C704.1869960199692,878.6333938115058,707.8346031569938,872.4123805965255,709.4846327941027,863.3696583951323L706.3516098793448,838.4140729590508C722.6049196799324,835.2855186652723,737.9161818248783,826.3652505349455,756.8461263121276,839.6931377737919C770.6881128066218,833.6098550783527,805.1132603489641,840.9576535899905,771.7988595644133,871.6756816631732C776.9280743601787,889.3592965824037,783.8813525280013,905.1818867451784,798.8492583073391,912.8275933222158C830.752233030882,903.8644749271361,859.0725168632787,923.1851985871463,885.1394725856615,960.2950174058233C912.7785168815315,937.9184844447482,875.2870639748912,872.7427121443925,851.3003032798638,853.3864819998407C863.0761241384546,840.368592351374,897.1468650043907,863.990277104399,908.2106855866791,880.2556417894921C917.1863091924138,894.4676231731155,927.6936305804425,939.7560576011665,891.5879005040515,971.0081724827587L901.1422624875322,983.2798717083479Z" style="stroke-dasharray: none; stroke-opacity: 0.70295; stroke-linejoin: round; display: inline; fill: rgb(0, 0, 0); fill-opacity: 1; stroke-width: 0.507; stroke: rgb(0, 22, 98); stroke-linecap: round;"/></g><g id="shape-4ffd1830-7943-11ed-989b-535ca11c8048"><path d="M851.4994513575357,250.26378524555435C850.3318249435365,237.52982276769603,852.9977903646004,222.26416826913533,870.4179644887872,200.9059231801118L877.4027308463133,193.46253081995224L877.5066522644759,179.87810663227924C880.8530258507208,174.25788045593276,883.8313790547804,170.23525556123172,887.5691207018244,168.9909767091974C892.5787912262299,173.82818617611542,891.1006129742887,180.82774401549273,892.6569401326881,186.81591782903092C909.4279517980876,182.3216559701434,926.1677523975657,174.68359454543474,943.0061051419343,176.9675379052385L957.118737649796,137.16317527550586L965.193362560063,131.4762315486994C965.1511011833438,145.24004835245273,961.5540691364911,161.51964680778815,965.1864344655191,172.908301494919L988.4737347353694,189.49375107604897L985.689125695237,200.05625127307508L947.180489947624,184.0263586653466C937.732127810669,189.19742954430217,939.349110436802,210.6311423671939,927.6968867848786,219.50268174454436L946.647961960487,242.51420228296888C939.7399588905103,247.32127453861972,934.6137231753994,244.95855874384847,928.8036152478346,245.3478137358104L919.2013108501087,233.2112019616918C917.2995142572654,233.28668355175137,915.4065509849661,233.16779744937207,913.1510405251709,241.01851673611486L904.7355880038044,242.5980010505266C907.4041168198494,254.49081317763853,905.2418931530913,264.2694826141278,902.7162909274921,268.69753613750436C890.817808154997,264.4301243423224,892.4549861767264,257.255975056386,890.3355781342509,250.07200173238311C876.3851669601402,256.09110255996734,863.6660513888899,254.81231833305378,851.4994513575357,250.26378524555435ZZ" style="stroke-linejoin: round; stroke-dasharray: none; stroke-opacity: 0.70295; fill: rgb(0, 0, 0); fill-opacity: 1; stroke-width: 0.507; stroke: rgb(0, 22, 98); stroke-linecap: round;"/></g><g id="shape-4ffd3f40-7943-11ed-989b-535ca11c8048"><path d="M40.86541721039714,165.74045331096954C55.120318139723096,167.01084761538982,69.32651456440364,168.3080675018848,80.80179468166932,171.1081192647555C84.79113008208469,162.58902244901014,86.55793275273504,153.3762259186958,94.49801406695474,147.11071355246145C92.25902711264746,139.3884930992774,93.69844267561376,130.55078707163352,92.92405490794084,122.00254722618524C102.21244734187138,131.70481710008903,112.79240980119579,146.2409501712466,107.93896780876076,156.19643497264474C104.16256739416002,167.665576798144,99.52614796332062,171.17822811749488,94.80569074566063,173.9135229806618C105.4988582698366,182.76285088690452,116.5072540957716,189.9826424596988,119.86703354495938,206.31388985986155C128.82970161389636,217.47648775011317,116.27457404050625,222.81495178539558,113.5425838784368,230.9609949582698L91.38612184055665,229.09800608701585C87.17093055800188,237.27395784403848,84.91822597649713,250.27561150294082,77.49442626770788,250.56172448737811L73.9166543236882,248.52853311745798L73.67521022882433,240.82146787109082L65.19151597619764,241.87384889639384L70.53539778141321,236.53168179457793L70.75571118791738,228.75109560890655L81.61674644289826,225.96678101279372L60.13972263696344,219.40178443964965L62.53369106622331,224.60319690865913L47.82642020363669,231.32811815221226L40.30029253843014,237.97340094898004L40.32454086933478,223.9746455311422L49.414824439775074,221.06658477432597C49.44600086522384,215.66937742540472,48.55615640197247,211.14985226976137,50.36819952999615,204.0544373142709L40.74569973667394,204.2441978238346Z" style="stroke-linejoin: round; stroke-dasharray: none; stroke-opacity: 0.70295; fill: rgb(0, 0, 0); fill-opacity: 1; stroke-width: 0.507; stroke: rgb(0, 22, 98); stroke-linecap: round;"/></g></g></g><g id="shape-a5963dd0-7943-11ed-989b-535ca11c8048" filter="url(#filter_936d1510-7944-11ed-acd9-893791c2efb2)"><defs><filter id="filter_936d1510-7944-11ed-acd9-893791c2efb2" x="-0.08446455505279035" y="-0.18064516129032257" width="1.1689291101055808" height="1.3612903225806452" filterUnits="objectBoundingBox" color-interpolation-filters="sRGB"><feFlood flood-opacity="0" result="BackgroundImageFix"/><feColorMatrix in="SourceAlpha" type="matrix" values="0 0 0 0 0 0 0 0 0 0 0 0 0 0 0 0 0 0 127 0"/><feMorphology radius="26" operator="dilate" in="SourceAlpha" result="filter_3abcd8c3-78b2-11ed-989b-535ca11c8048"/><feOffset dx="0" dy="0"/><feGaussianBlur stdDeviation="12.5"/><feColorMatrix type="matrix" values="0 0 0 0 1 0 0 0 0 0 0 0 0 0 0 0 0 0 0.69 0"/><feBlend mode="normal" in2="BackgroundImageFix" result="filter_3abcd8c3-78b2-11ed-989b-535ca11c8048"/><feBlend mode="normal" in="SourceGraphic" in2="filter_3abcd8c3-78b2-11ed-989b-535ca11c8048" result="shape"/></filter></defs><g><path d="M3440 7200 l0 -3000 130 0 130 0 0 1145 0 1145 780 0 780 0 0 115 0
115 -780 0 -780 0 0 1625 0 1625 935 0 935 0 0 115 0 115 -1065 0 -1065 0 0
-3000z M10890 7200 l0 -3000 125 0 125 0 2 436 3 435 80 -122 c218 -334 576
-601 990 -738 199 -66 357 -91 570 -91 453 0 846 139 1191 421 168 137 356
359 467 551 108 189 192 445 217 668 19 156 8 486 -20 615 -79 367 -231 650
-505 934 -303 315 -653 493 -1095 557 -139 20 -446 15 -580 -10 -548 -101
-1045 -440 -1277 -871 l-38 -70 -3 1643 -2 1642 -125 0 -125 0 0 -3000z m2170
445 c249 -38 523 -164 732 -337 448 -373 675 -893 628 -1446 -36 -438 -212
-793 -545 -1103 -307 -286 -666 -425 -1095 -423 -453 1 -850 171 -1177 505
-265 271 -406 552 -463 924 -15 93 -14 351 0 456 50 355 217 685 480 948 405
404 880 561 1440 476z M15480 7868 c0 -1386 4 -2390 10 -2474 21 -312 102
-533 276 -754 211 -269 568 -465 899 -494 39 -4 94 -9 123 -12 l52 -5 0 109 0
109 -92 7 c-433 31 -821 333 -957 746 -59 180 -55 -14 -58 2658 l-3 2442 -125
0 -125 0 0 -2332z M21855 7879 c-303 -44 -555 -247 -622 -502 -23 -85 -22
-251 2 -342 39 -155 107 -265 252 -407 128 -127 203 -180 533 -376 373 -222
463 -282 575 -380 166 -147 263 -281 309 -424 102 -323 28 -606 -219 -836
-175 -164 -368 -249 -624 -274 -285 -29 -562 53 -760 224 -95 81 -192 203
-263 329 l-48 84 0 -176 0 -177 40 -60 c22 -33 78 -96 124 -139 134 -127 295
-211 516 -271 87 -24 112 -26 300 -26 224 -1 282 8 450 66 324 113 613 396
718 703 37 109 54 215 54 345 1 231 -58 411 -194 595 -68 92 -214 237 -309
308 -89 65 -343 222 -585 361 -93 54 -213 128 -265 164 -123 87 -288 251 -323
319 -94 187 -68 368 72 516 111 115 243 171 407 170 233 -1 426 -100 587 -301
l58 -73 0 154 0 155 -68 64 c-187 176 -434 248 -717 207z M7720 7865 c-274
-45 -487 -122 -707 -256 -237 -145 -496 -405 -648 -650 -189 -305 -278 -657
-262 -1039 21 -486 191 -874 540 -1229 271 -276 586 -454 937 -529 191 -41
465 -54 650 -31 413 51 822 254 1100 545 112 118 171 199 276 379 l29 50 3
-452 2 -453 120 0 120 0 0 1800 0 1800 -120 0 -120 0 -2 -457 -3 -458 -43 86
c-146 293 -365 508 -703 688 -166 89 -375 161 -569 197 -119 22 -486 28 -600
9z m445 -205 c392 -38 721 -200 1002 -493 327 -343 482 -720 483 -1175 0 -456
-164 -847 -494 -1178 -307 -306 -641 -454 -1081 -480 -182 -11 -429 27 -622
96 -230 82 -422 209 -623 410 -320 321 -479 702 -480 1148 0 451 154 826 480
1166 219 229 483 388 770 465 64 17 126 26 285 45 66 7 175 5 280 -4z M18845
7869 c-409 -24 -780 -166 -1087 -416 -103 -84 -296 -289 -368 -391 -231 -329
-334 -652 -334 -1052 0 -182 12 -292 51 -450 163 -672 776 -1271 1445 -1410
230 -47 557 -52 792 -11 227 40 464 135 658 264 98 66 248 190 326 269 l52 54
-2 193 -3 193 -64 -82 c-228 -295 -529 -512 -859 -620 -188 -61 -284 -75 -532
-75 -193 0 -224 3 -300 23 -201 55 -352 125 -543 253 -73 48 -145 98 -160 111
l-28 23 1257 1240 1257 1239 -125 121 c-401 388 -864 558 -1433 524z m235
-220 c348 -32 637 -150 919 -373 l63 -51 -1163 -1157 c-640 -637 -1167 -1158
-1170 -1158 -10 0 -107 126 -165 215 -203 311 -294 698 -253 1073 40 368 198
682 490 972 369 366 791 524 1279 479z" transform="translate(-12.059854858136589, 186.6292944151321) scale(0.25, 0.25) translate(0.000000,1240.000000) scale(0.100000,-0.100000)" fill="#ffffff" stroke="none"/></g></g><g id="shape-a5963dd1-7943-11ed-989b-535ca11c8048" filter="url(#filter_936f5f00-7944-11ed-acd9-893791c2efb2)"><defs><filter id="filter_936f5f00-7944-11ed-acd9-893791c2efb2" x="-0.09605488850771869" y="-0.20216606498194944" width="1.1921097770154374" height="1.404332129963899" filterUnits="objectBoundingBox" color-interpolation-filters="sRGB"><feFlood flood-opacity="0" result="BackgroundImageFix"/><feColorMatrix in="SourceAlpha" type="matrix" values="0 0 0 0 0 0 0 0 0 0 0 0 0 0 0 0 0 0 127 0"/><feMorphology radius="26" operator="dilate" in="SourceAlpha" result="filter_3abcd8c2-78b2-11ed-989b-535ca11c8048"/><feOffset dx="0" dy="0"/><feGaussianBlur stdDeviation="12.5"/><feColorMatrix type="matrix" values="0 0 0 0 1 0 0 0 0 0 0 0 0 0 0 0 0 0 0.69 0"/><feBlend mode="normal" in2="BackgroundImageFix" result="filter_3abcd8c2-78b2-11ed-989b-535ca11c8048"/><feBlend mode="normal" in="SourceGraphic" in2="filter_3abcd8c2-78b2-11ed-989b-535ca11c8048" result="shape"/></filter></defs><g><path d="M3440 5480 l0 -3000 130 0 130 0 0 1145 0 1145 2060 0 2060 0 0
-1145 0 -1145 130 0 130 0 0 3000 0 3000 -130 0 -130 0 0 -1740 0 -1740 -2060
0 -2060 0 0 1740 0 1740 -130 0 -130 0 0 -3000z M21360 6840 c0 -902 -3 -1640
-7 -1640 -5 0 -25 33 -45 73 -142 273 -433 537 -773 698 -276 131 -471 177
-780 186 -149 4 -215 2 -305 -11 -434 -64 -771 -234 -1082 -549 -364 -367
-548 -809 -548 -1317 0 -511 187 -958 555 -1325 389 -390 854 -572 1410 -552
240 8 433 52 657 150 374 163 666 406 848 706 30 49 58 90 63 91 4 0 7 -196 7
-435 l0 -435 120 0 120 0 0 3000 0 3000 -120 0 -120 0 0 -1640z m-1375 -914
c331 -51 652 -226 908 -496 321 -337 476 -715 477 -1163 1 -546 -257 -1023
-737 -1366 -465 -332 -1126 -381 -1643 -121 -322 162 -621 469 -768 790 -106
233 -152 442 -152 699 0 275 47 485 161 726 181 381 559 729 933 858 170 59
198 65 426 91 62 7 303 -4 395 -18z M10620 6144 c-217 -33 -449 -111 -633
-213 -255 -142 -513 -384 -689 -646 -378 -564 -392 -1346 -33 -1940 112 -186
286 -388 456 -530 278 -232 594 -367 950 -406 136 -15 497 -6 609 15 345 65
643 219 903 466 351 333 551 718 607 1170 15 124 12 376 -5 499 -58 393 -217
711 -512 1021 -298 314 -659 501 -1090 565 -130 19 -432 18 -563 -1z m568
-219 c175 -26 404 -113 559 -212 212 -134 437 -362 562 -565 124 -205 199
-411 231 -638 15 -110 15 -361 0 -470 -52 -369 -214 -685 -491 -957 -155 -151
-288 -244 -467 -326 -205 -95 -419 -140 -662 -141 -457 -1 -845 162 -1179 495
-382 381 -548 880 -470 1414 51 346 208 651 476 922 399 403 881 563 1441 478z
M15035 6144 c-515 -79 -941 -339 -1267 -772 -356 -472 -452 -1093 -259 -1672
96 -288 268 -550 517 -791 272 -262 568 -416 936 -486 131 -24 516 -30 654 -8
424 65 761 241 1054 553 218 231 366 476 454 750 94 293 111 653 46 970 -90
435 -377 856 -781 1144 -171 122 -428 237 -634 283 -211 46 -526 59 -720 29z
m563 -219 c114 -17 311 -80 417 -133 173 -86 319 -196 471 -355 324 -338 473
-705 473 -1162 0 -452 -149 -823 -462 -1152 -323 -337 -710 -506 -1167 -507
-459 -2 -842 158 -1177 492 -328 325 -493 715 -493 1162 0 502 222 963 625
1299 270 224 537 336 900 375 72 7 309 -3 413 -19z" transform="translate(425.38028518035554, 580.2662491783367) scale(0.25, 0.25) translate(0.000000,1108.000000) scale(0.100000,-0.100000)" fill="#ffffff" stroke="none"/></g></g><g id="shape-a5963dd2-7943-11ed-989b-535ca11c8048" filter="url(#filter_936ffb40-7944-11ed-acd9-893791c2efb2)"><defs><filter id="filter_936ffb40-7944-11ed-acd9-893791c2efb2" x="-0.15469613259668508" y="-0.33532934131736525" width="1.3093922651933703" height="1.6706586826347305" filterUnits="objectBoundingBox" color-interpolation-filters="sRGB"><feFlood flood-opacity="0" result="BackgroundImageFix"/><feColorMatrix in="SourceAlpha" type="matrix" values="0 0 0 0 0 0 0 0 0 0 0 0 0 0 0 0 0 0 127 0"/><feMorphology radius="26" operator="dilate" in="SourceAlpha" result="filter_3abcd8c1-78b2-11ed-989b-535ca11c8048"/><feOffset dx="0" dy="0"/><feGaussianBlur stdDeviation="12.5"/><feColorMatrix type="matrix" values="0 0 0 0 1 0 0 0 0 0 0 0 0 0 0 0 0 0 0.69 0"/><feBlend mode="normal" in2="BackgroundImageFix" result="filter_3abcd8c1-78b2-11ed-989b-535ca11c8048"/><feBlend mode="normal" in="SourceGraphic" in2="filter_3abcd8c1-78b2-11ed-989b-535ca11c8048" result="shape"/></filter></defs><g><path d="M2290 4020 l0 -1980 80 0 80 0 0 755 0 755 515 0 515 0 0 75 0 75
-515 0 -515 0 0 1075 0 1075 620 0 620 0 0 75 0 75 -700 0 -700 0 0 -1980z
M4980 4460 c-248 -32 -466 -161 -593 -350 l-37 -55 0 178 0 177 -80 0 -80 0 0
-1185 0 -1185 80 0 79 0 3 863 3 862 27 73 c40 107 92 187 183 278 137 138
275 202 456 211 175 10 356 -54 487 -172 l62 -57 0 101 0 100 -45 31 c-63 43
-179 96 -250 115 -75 19 -210 26 -295 15z M7031 4459 c-194 -21 -368 -86 -543
-205 -392 -267 -596 -690 -548 -1134 33 -310 157 -560 385 -782 106 -104 181
-158 296 -218 184 -95 338 -130 572 -130 342 0 607 104 846 334 288 277 424
632 390 1021 -33 381 -235 709 -573 929 -240 155 -515 217 -825 185z m419
-158 c113 -28 290 -116 381 -189 322 -256 474 -604 438 -996 -42 -446 -353
-820 -794 -952 -83 -25 -104 -28 -275 -28 -172 -1 -192 1 -285 27 -254 70
-498 248 -648 473 -230 347 -231 826 -3 1171 168 255 409 432 671 493 118 28
127 29 285 25 104 -3 169 -9 230 -24z M9793 4460 c-237 -33 -482 -172 -616
-350 l-27 -35 0 168 0 167 -80 0 -80 0 0 -1185 0 -1185 80 0 79 0 3 863 3 862
28 75 c38 102 80 169 160 256 139 149 291 222 483 231 128 7 223 -13 337 -69
66 -33 100 -59 173 -133 78 -78 99 -106 137 -186 79 -162 77 -138 77 -1074 l0
-825 80 0 79 0 3 858 3 857 27 73 c15 41 42 99 60 129 42 70 146 184 216 235
267 197 634 182 870 -37 116 -107 195 -247 221 -389 7 -40 11 -338 11 -893 l0
-833 80 0 81 0 -3 883 -3 882 -28 90 c-101 326 -384 550 -722 572 -109 7 -280
-16 -385 -52 -227 -77 -408 -244 -484 -447 l-23 -61 -52 99 c-87 171 -220 304
-386 388 -123 62 -265 85 -402 66z" transform="translate(203.4401451418634, 430.79331731141156) scale(0.25, 0.25) translate(0.000000,668.000000) scale(0.100000,-0.100000)" fill="#ffffff" stroke="none"/></g></g><g id="shape-a5963dd3-7943-11ed-989b-535ca11c8048" filter="url(#filter_93709780-7944-11ed-acd9-893791c2efb2)"><defs><filter id="filter_93709780-7944-11ed-acd9-893791c2efb2" x="-0.20973782771535582" y="-0.47058823529411764" width="1.4194756554307117" height="1.9411764705882353" filterUnits="objectBoundingBox" color-interpolation-filters="sRGB"><feFlood flood-opacity="0" result="BackgroundImageFix"/><feColorMatrix in="SourceAlpha" type="matrix" values="0 0 0 0 0 0 0 0 0 0 0 0 0 0 0 0 0 0 127 0"/><feMorphology radius="26" operator="dilate" in="SourceAlpha" result="filter_3abcd8c0-78b2-11ed-989b-535ca11c8048"/><feOffset dx="0" dy="0"/><feGaussianBlur stdDeviation="12.5"/><feColorMatrix type="matrix" values="0 0 0 0 1 0 0 0 0 0 0 0 0 0 0 0 0 0 0.69 0"/><feBlend mode="normal" in2="BackgroundImageFix" result="filter_3abcd8c0-78b2-11ed-989b-535ca11c8048"/><feBlend mode="normal" in="SourceGraphic" in2="filter_3abcd8c0-78b2-11ed-989b-535ca11c8048" result="shape"/></filter></defs><g><path d="M2000 4005 l0 -75 455 0 455 0 0 -1905 0 -1905 85 0 85 0 0 1905 0
1905 450 0 450 0 0 75 0 75 -990 0 -990 0 0 -75z M4450 2095 l0 -1975 80 0 80
0 0 724 c0 795 2 824 60 974 62 159 211 341 366 444 294 196 707 196 979 0
200 -145 338 -352 380 -575 13 -66 15 -203 15 -823 l0 -744 86 0 85 0 -3 758
c-4 668 -6 767 -21 839 -66 315 -273 582 -562 724 -342 169 -815 134 -1106
-82 -85 -63 -146 -130 -218 -239 l-56 -85 -3 1018 -2 1017 -80 0 -80 0 0
-1975z M8144 2524 c-163 -27 -351 -101 -486 -191 -147 -97 -325 -291 -413
-448 -152 -272 -187 -647 -88 -945 119 -358 441 -690 784 -809 268 -93 617
-92 859 1 156 60 292 146 418 263 l72 67 0 126 -1 127 -31 -40 c-60 -77 -215
-222 -293 -275 -162 -110 -320 -168 -516 -191 -189 -22 -357 9 -534 97 -82 41
-266 162 -264 174 0 3 373 372 829 820 l829 815 -82 78 c-188 179 -403 290
-642 331 -110 19 -328 19 -441 0z m386 -138 c112 -20 210 -53 306 -102 89 -45
195 -116 227 -152 18 -20 9 -30 -743 -779 -419 -417 -767 -759 -773 -761 -19
-4 -122 144 -172 243 -162 328 -150 720 31 1015 114 185 298 357 481 449 76
38 194 78 265 90 82 13 295 12 378 -3z" transform="translate(511.4401451418634, 479.79331731141156) scale(0.25, 0.25) translate(0.000000,476.000000) scale(0.100000,-0.100000)" fill="#ffffff" stroke="none"/></g></g></g></g></svg>