<svg id="screenshot" viewBox="-0.05852357320097212 0 529.9413647405908 399.50001937901834" width="529.9413647405908" height="399.50001937901834" version="1.1" xmlns="http://www.w3.org/2000/svg" xmlns:xlink="http://www.w3.org/1999/xlink" style="-webkit-print-color-adjust: exact;"><g id="shape-d5d8f2e3-7799-11ed-a5c1-fdf8d6fe48ea" clip-path="url(#frame-clip-d5d8f2e3-7799-11ed-a5c1-fdf8d6fe48ea-59de6750-779a-11ed-9ee5-5727a2d33d3c)"><defs><clipPath id="frame-clip-d5d8f2e3-7799-11ed-a5c1-fdf8d6fe48ea-59de6750-779a-11ed-9ee5-5727a2d33d3c" class="frame-clip"><rect x="0" y="0" width="530" height="400"/></clipPath></defs><rect x="0" y="0" width="530" height="400" class="frame-background" style="fill: rgb(193, 193, 193); fill-opacity: 0.22;"/><g id="shape-d5d8f2e2-7799-11ed-a5c1-fdf8d6fe48ea"><g id="shape-d5d8f2ef-7799-11ed-a5c1-fdf8d6fe48ea" filter="url(#filter_59e0d850-779a-11ed-9ee5-5727a2d33d3c)"><defs><filter id="filter_59e0d850-779a-11ed-9ee5-5727a2d33d3c" x="-0.01893879318878518" y="-0.02482626482325182" width="1.0373942506115015" height="1.0523930434391897" filterUnits="objectBoundingBox" color-interpolation-filters="sRGB"><feFlood flood-opacity="0" result="BackgroundImageFix"/><feBlend mode="normal" in="SourceGraphic" in2="BackgroundImageFix" result="shape"/><feGaussianBlur stdDeviation="3" result="filter_1655a490-7794-11ed-a5c1-fdf8d6fe48ea"/></filter></defs><rect rx="25" ry="25" x="10.181774193548563" y="14" transform="matrix(1,0,0,1,0,0)" width="510" height="364" style="fill: rgb(255, 255, 255); fill-opacity: 1; stroke-width: 5; stroke: rgb(210, 7, 7); stroke-opacity: 0.64;"/></g><g id="shape-d5d8f2e4-7799-11ed-a5c1-fdf8d6fe48ea"><ellipse cx="104.18177419354856" cy="115" rx="70" ry="70" transform="matrix(1,0,0,1,0,0)" style="fill: rgb(233, 239, 255); fill-opacity: 1;"/></g><g id="shape-d5d8f2ed-7799-11ed-a5c1-fdf8d6fe48ea"><ellipse cx="406.18177419354856" cy="274" rx="66" ry="66" transform="matrix(1,0,0,1,0,0)" style="fill: rgb(233, 239, 255); fill-opacity: 1;"/></g><g id="shape-d5d8f2e9-7799-11ed-a5c1-fdf8d6fe48ea"><g id="shape-d5d8f2eb-7799-11ed-a5c1-fdf8d6fe48ea"><ellipse cx="111.18177419354856" cy="304" rx="22" ry="22" transform="matrix(1,0,0,1,0,0)" style="fill: rgb(229, 229, 229); fill-opacity: 1;"/></g><g id="shape-d5d8f2ee-7799-11ed-a5c1-fdf8d6fe48ea"><ellipse cx="62.18177419354856" cy="303" rx="11" ry="11" transform="matrix(1,0,0,1,0,0)" style="fill: rgb(229, 229, 229); fill-opacity: 1;"/></g><g id="shape-d5d8f2e5-7799-11ed-a5c1-fdf8d6fe48ea"><ellipse cx="310.18177419354856" cy="152" rx="55" ry="55" transform="matrix(1,0,0,1,0,0)" style="fill: rgb(229, 229, 229); fill-opacity: 1;"/></g><g id="shape-d5d8f2e7-7799-11ed-a5c1-fdf8d6fe48ea"><ellipse cx="248.18177419354856" cy="239" rx="44" ry="44" transform="matrix(1,0,0,1,0,0)" style="fill: rgb(229, 229, 229); fill-opacity: 1;"/></g><g id="shape-d5d8f2e1-7799-11ed-a5c1-fdf8d6fe48ea"><ellipse cx="176.18177419354856" cy="283" rx="33" ry="33" transform="matrix(1,0,0,1,0,0)" style="fill: rgb(229, 229, 229); fill-opacity: 1;"/></g></g><g id="shape-d5d8f2e0-7799-11ed-a5c1-fdf8d6fe48ea" xml:space="preserve" width="167.72232mm" version="1.1" height="144.26126mm"><g id="shape-d5d8f2f0-7799-11ed-a5c1-fdf8d6fe48ea"><path d="M287.95795412198146,23.355138365447146C271.55469246344484,8.01657382643998,259.55577191466426,-7.146716953701798,293.6142321097863,-20.47697510973012C297.58059796344486,-34.00833397497854,294.9855918658839,-53.49395099625508,322.71879125612776,-45.45757993242523C339.91498802442044,-82.77483939341823,358.82447156100574,-73.111807370723,378.20177912198136,-50.62051099625501C419.1143875975914,-68.9876598189503,417.5343406463719,-46.08762475512049,421.6868254024695,-28.75480773384379C472.36479552442063,-36.74981482604221,468.2919254024695,-14.042081492708803,448.90755771954264,17.251909996652557C462.0183686951523,54.039198507291076,447.48334552442066,64.61424531580178,423.0004436951524,65.75726942927668C411.3579156463719,86.05334886190099,395.7372394268598,90.4794595001988,375.2711333902741,75.57568645055358C357.336740280518,96.72331765622721,341.90728979271313,92.60664247892237,328.1973705853961,71.14713609594355C292.55103845124967,77.16180843636903,268.7192714878351,71.51488645055338,287.95795412198146,23.355138365447146ZZ" style="stroke-linejoin: round; stroke-dasharray: none; stroke-opacity: 0.32; fill: rgb(229, 229, 229); fill-opacity: 1; stroke-width: 3.265; stroke: rgb(210, 7, 7); stroke-linecap: round;"/></g></g><g id="shape-d5d8f2e6-7799-11ed-a5c1-fdf8d6fe48ea"><g><path d="M3115 3736 c-142 -35 -275 -125 -470 -321 -165 -165 -300 -330 -457
-559 l-103 -150 -115 -32 c-63 -17 -116 -30 -118 -29 -5 4 76 239 114 333 80
194 201 405 317 550 37 47 47 66 39 74 -57 57 -615 -589 -832 -959 -60 -103
-68 -112 -100 -118 -38 -6 -92 3 -208 37 -62 18 -79 28 -113 66 -54 62 -73
132 -66 237 21 292 240 509 643 638 60 19 143 43 184 53 l75 18 -75 8 c-41 5
-131 9 -200 9 -110 1 -134 -2 -198 -24 -139 -48 -268 -143 -375 -277 -125
-157 -172 -276 -172 -440 0 -94 3 -111 28 -162 62 -126 230 -218 399 -218 31
0 59 -4 63 -9 3 -5 -24 -71 -59 -145 -150 -316 -289 -461 -487 -510 -80 -20
-134 -20 -220 -2 -123 26 -199 84 -199 151 0 46 42 79 133 105 40 11 87 28
106 37 132 67 59 273 -97 275 -75 0 -112 -11 -158 -46 -78 -59 -113 -131 -114
-237 -1 -272 357 -416 771 -310 158 41 345 155 466 285 110 119 229 313 288
470 l22 59 112 32 c74 21 110 28 107 19 -30 -78 -90 -289 -108 -377 -18 -89
-23 -146 -23 -282 0 -182 11 -245 60 -352 29 -63 222 -263 305 -316 114 -71
276 -105 449 -93 119 9 181 23 531 119 408 113 503 131 685 131 165 1 251 -15
360 -64 61 -28 161 -98 203 -143 l24 -25 79 54 c111 75 162 89 339 89 158 0
268 -18 375 -60 l60 -24 -40 35 c-103 89 -310 207 -440 252 -231 79 -470 100
-705 62 -157 -26 -546 -107 -795 -167 -527 -126 -563 -132 -690 -113 -147 21
-251 88 -346 223 -68 97 -89 171 -96 332 -4 97 -1 158 12 240 32 205 119 514
166 591 15 24 41 41 107 69 594 255 934 575 848 800 -39 102 -152 145 -291
111z m149 -78 c27 -29 28 -35 24 -103 -4 -56 -12 -85 -39 -136 -87 -163 -382
-401 -654 -524 -53 -25 -75 -31 -75 -21 0 8 40 94 89 192 146 291 286 487 408
570 104 71 194 79 247 22z M5439 3483 c-70 -149 -224 -507 -270 -628 -20 -55
-42 -101 -48 -103 -5 -2 -42 11 -82 28 -81 36 -107 35 -196 -5 -81 -36 -130
-74 -229 -176 -166 -171 -264 -298 -324 -424 -69 -146 -75 -228 -19 -305 47
-64 83 -82 156 -77 78 6 139 40 189 105 19 26 38 47 41 47 3 0 15 -27 27 -60
28 -75 64 -98 143 -92 91 6 241 120 365 276 66 83 93 131 103 183 12 64 -12
51 -88 -49 -111 -147 -195 -214 -232 -183 -12 10 -11 19 11 68 31 70 96 184
185 323 89 139 178 307 300 568 95 203 249 552 249 564 0 4 -10 15 -22 27 -19
17 -35 20 -115 20 l-94 0 -50 -107z m-378 -781 l22 -19 -60 -114 c-109 -207
-295 -483 -368 -548 -37 -32 -72 -40 -93 -19 -29 29 -6 161 45 263 92 183 304
427 388 448 35 9 42 7 66 -11z M3023 2789 c-139 -18 -285 -121 -429 -305 -199
-254 -279 -528 -188 -640 59 -74 182 -87 292 -33 120 59 322 280 420 459 l37
68 80 4 c82 4 155 29 163 57 4 11 -13 12 -96 6 -58 -4 -102 -3 -105 2 -3 5 8
52 24 104 24 73 30 105 25 143 -12 107 -87 152 -223 135z m140 -111 c11 -13
17 -37 17 -68 0 -56 -34 -172 -55 -190 -38 -32 -149 21 -179 85 -26 55 -15 95
41 145 71 62 138 73 176 28z m-228 -250 c37 -37 70 -54 118 -63 20 -4 37 -9
37 -12 0 -3 -16 -32 -36 -66 -118 -203 -219 -295 -326 -300 -52 -2 -72 22 -64
76 11 70 105 279 174 387 l35 55 16 -24 c9 -13 30 -37 46 -53z M3950 2788
c-161 -23 -340 -170 -495 -408 -181 -275 -202 -522 -50 -586 41 -17 139 -18
186 -2 131 44 325 244 456 469 l44 76 82 5 c92 6 157 28 157 54 0 14 -11 15
-100 9 -81 -6 -100 -5 -100 6 0 8 11 50 25 94 40 128 29 221 -32 260 -34 23
-107 32 -173 23z m124 -90 c16 -7 29 -24 35 -45 16 -58 -18 -214 -52 -235 -35
-22 -116 9 -161 62 -63 76 -8 184 112 220 37 11 38 11 66 -2z m-231 -239 c31
-46 74 -75 135 -91 23 -7 42 -16 42 -20 0 -16 -101 -175 -142 -224 -78 -94
-142 -135 -214 -137 -76 -3 -83 44 -30 181 51 133 156 333 174 332 4 -1 19
-19 35 -41z" transform="translate(329.18177419354856, 226) scale(0.25, 0.25) translate(0.000000,428.000000) scale(0.100000,-0.100000)" fill="#d20707" stroke="none"/></g></g><g id="shape-d5d8f2ea-7799-11ed-a5c1-fdf8d6fe48ea"><g><path d="M2270 2809 c-442 -31 -892 -324 -1065 -692 -65 -138 -65 -264 0 -362
45 -66 105 -102 204 -123 74 -15 85 -15 166 0 120 24 186 59 275 148 124 124
180 262 180 445 0 147 -35 225 -113 254 -76 29 -210 -4 -298 -72 -121 -96
-208 -288 -209 -459 l0 -67 88 62 c48 34 107 71 130 82 37 18 44 26 58 75 24
86 90 215 125 244 58 49 109 24 109 -55 -1 -163 -102 -370 -236 -481 -113 -94
-280 -130 -374 -83 -98 50 -133 199 -80 340 37 98 120 213 234 322 217 210
399 299 631 310 134 6 212 -10 488 -98 304 -97 381 -113 467 -94 109 24 270
160 270 228 0 15 -4 27 -8 27 -5 0 -42 -11 -82 -25 -53 -18 -95 -25 -150 -25
-83 0 -96 2 -400 60 -230 44 -275 48 -410 39z M5640 2788 c-68 -10 -167 -56
-240 -110 -134 -100 -341 -327 -495 -542 -278 -390 -493 -874 -520 -1171 -6
-62 -3 -75 18 -115 25 -48 84 -90 127 -90 36 0 116 49 191 118 90 83 269 301
269 327 0 22 -42 -11 -131 -101 -142 -143 -183 -163 -215 -103 -19 37 -14 81
22 209 49 167 52 171 255 341 203 169 419 380 547 534 209 250 362 509 362
611 0 32 -19 72 -39 80 -34 14 -98 19 -151 12z m100 -98 c19 -26 20 -34 9 -72
-26 -97 -143 -284 -279 -448 -126 -151 -332 -370 -441 -471 -112 -102 -228
-193 -237 -184 -14 14 107 259 216 435 246 400 473 674 616 741 76 36 90 36
116 -1z M4262 2528 c-38 -18 -50 -35 -131 -177 -293 -516 -592 -1088 -662
-1264 -48 -121 1 -257 111 -304 19 -8 71 -17 115 -20 221 -14 440 102 582 309
120 174 193 380 193 545 0 94 -12 126 -60 167 -38 31 -75 33 -196 9 -89 -17
-107 -14 -81 14 15 18 34 55 177 363 40 85 97 206 126 268 l53 112 -92 0 c-72
-1 -101 -6 -135 -22z m-46 -813 c14 -21 16 -40 11 -98 -15 -179 -120 -391
-265 -535 -80 -81 -133 -109 -169 -93 -22 10 -24 15 -18 54 11 64 56 175 151
367 107 219 161 307 194 319 47 17 78 13 96 -14z M2621 2407 c-79 -28 -194
-154 -331 -362 -84 -128 -230 -400 -230 -428 0 -7 -37 -22 -83 -35 -105 -29
-294 -104 -374 -149 -86 -48 -139 -104 -117 -125 3 -3 77 36 166 87 154 90
254 135 340 154 39 9 40 9 33 -17 -4 -15 -30 -77 -60 -138 -190 -401 -423
-584 -745 -584 -100 0 -224 28 -287 66 -104 61 -93 165 21 195 121 32 152 44
179 71 27 26 29 33 25 86 -7 100 -61 142 -181 142 -158 0 -268 -123 -254 -286
9 -122 90 -217 227 -268 118 -44 166 -51 340 -50 287 1 488 54 682 180 87 56
218 186 276 274 55 84 125 226 152 313 25 78 38 87 123 87 80 0 127 11 138 31
9 18 4 18 -101 12 -74 -4 -110 -3 -110 4 0 25 43 216 71 317 16 59 57 177 89
260 33 84 60 158 60 164 0 14 -5 14 -49 -1z M6433 1848 c-11 -13 -40 -53 -66
-89 -26 -37 -115 -132 -199 -210 -183 -172 -238 -229 -238 -246 0 -31 38 -4
201 144 l174 156 3 -74 c10 -229 -58 -512 -150 -623 -69 -85 -200 -101 -257
-32 -11 13 -7 15 30 14 36 0 48 5 70 30 81 91 12 220 -105 198 -48 -9 -103
-62 -111 -109 -17 -92 28 -168 132 -219 63 -31 74 -33 169 -33 99 0 102 1 188
43 154 76 272 218 312 372 28 112 11 175 -108 385 -37 66 -68 127 -68 137 0 9
20 46 44 81 33 48 41 68 34 80 -12 23 -31 21 -55 -5z M3035 1803 c-103 -22
-209 -90 -332 -215 -288 -291 -414 -558 -329 -702 34 -59 77 -88 137 -94 85
-8 168 36 230 121 28 39 29 39 38 16 39 -102 45 -112 77 -125 99 -42 193 3
359 170 66 67 135 147 154 179 33 56 54 147 33 147 -5 0 -38 -39 -73 -87 -71
-99 -114 -142 -177 -180 -44 -26 -72 -25 -72 3 0 24 93 197 179 333 145 229
235 411 213 433 -6 6 -50 9 -102 7 -87 -4 -93 -5 -115 -33 -25 -32 -35 -31
-117 10 -46 23 -62 26 -103 17z m139 -102 c17 -19 17 -22 -7 -74 -66 -144
-295 -494 -382 -584 -134 -139 -169 8 -55 232 59 118 142 232 242 333 104 106
165 134 202 93z M5635 1798 c-140 -18 -320 -148 -456 -330 -114 -154 -171
-283 -191 -433 -19 -153 30 -241 149 -265 172 -36 350 60 536 288 215 263 202
297 -25 68 -85 -85 -171 -163 -194 -174 -22 -11 -68 -26 -102 -33 -56 -12 -63
-11 -82 6 -24 21 -25 59 -6 130 20 78 31 92 74 99 55 8 206 71 277 114 76 46
173 144 202 203 43 87 50 196 16 261 -28 57 -95 79 -198 66z m105 -93 c21 -26
8 -132 -26 -200 -38 -78 -131 -177 -222 -236 -67 -44 -167 -87 -178 -77 -2 3
20 52 49 109 151 295 318 475 377 404z" transform="translate(10.181774193548563, 78) scale(0.25, 0.25) translate(0.000000,328.000000) scale(0.100000,-0.100000)" fill="#d20707" stroke="none"/></g></g><g id="shape-d5d8f2e8-7799-11ed-a5c1-fdf8d6fe48ea"><g><path d="M1878 2515 c-361 -59 -716 -313 -845 -603 -29 -67 -40 -170 -24 -230
14 -51 76 -123 126 -147 96 -45 233 -40 344 12 76 36 180 142 219 225 41 85
54 145 54 255 1 111 -25 175 -82 206 -76 41 -221 -2 -308 -91 -84 -86 -146
-245 -140 -357 l3 -56 65 46 c36 25 86 58 111 72 35 18 48 33 53 54 11 58 67
176 97 207 37 38 82 43 99 12 11 -21 6 -95 -12 -170 -19 -80 -79 -181 -148
-251 -169 -170 -393 -169 -440 1 -27 98 26 252 128 370 199 232 432 360 654
360 105 0 190 -19 404 -89 233 -77 326 -96 385 -81 58 16 93 34 157 82 54 40
100 114 82 132 -4 4 -38 -2 -76 -14 -95 -32 -175 -28 -417 20 -234 47 -361 56
-489 35z M2253 2175 c-101 -44 -286 -291 -420 -562 -48 -96 -71 -133 -84 -133
-61 0 -371 -136 -432 -189 -33 -29 -49 -61 -30 -61 3 0 52 26 107 59 164 95
248 133 343 154 26 6 27 8 -42 -139 -172 -367 -410 -535 -702 -496 -161 22
-243 68 -243 137 0 47 28 69 117 94 41 11 86 27 99 36 52 34 56 116 7 167 -91
95 -281 40 -333 -97 -18 -46 -14 -139 8 -187 34 -78 123 -140 247 -175 72 -20
274 -28 377 -14 171 23 324 76 435 152 69 47 169 145 218 214 49 68 127 224
152 301 18 58 27 64 104 64 66 0 107 10 114 27 5 14 -7 15 -90 11 -84 -5 -95
-3 -91 11 3 9 12 54 21 101 23 114 65 254 120 395 59 153 59 157 -2 130z
M2534 1641 c-74 -55 -234 -237 -234 -266 0 -25 12 -17 81 51 38 37 72 63 78
60 25 -16 11 -79 -40 -175 -45 -85 -258 -534 -255 -537 0 -1 49 -4 108 -7
l106 -6 52 122 c69 159 142 306 195 388 64 99 288 289 341 289 68 0 104 -51
44 -63 -16 -4 -47 -22 -69 -42 -59 -53 -67 -120 -18 -142 84 -39 211 152 163
245 -20 38 -62 72 -90 72 -30 0 -111 -40 -204 -99 -43 -28 -84 -51 -89 -51 -6
0 -13 25 -17 56 -15 125 -71 165 -152 105z M3855 1557 c-159 -162 -215 -276
-65 -131 38 36 73 63 79 59 23 -14 10 -72 -36 -160 -46 -90 -263 -545 -263
-553 0 -4 169 5 236 14 l40 5 49 132 c92 252 125 328 171 400 57 88 168 205
211 223 40 17 38 17 57 -2 39 -38 4 -187 -95 -410 -70 -158 -96 -230 -109
-293 -13 -72 -12 -73 114 -66 138 8 144 10 122 33 -9 10 -16 32 -16 48 0 35
48 171 120 346 46 112 61 137 126 212 64 73 152 146 175 146 4 0 15 -7 23 -16
40 -39 7 -177 -92 -392 -93 -200 -95 -206 -89 -253 11 -81 65 -113 182 -107
113 6 171 35 268 137 66 70 118 141 102 141 -3 0 -31 -21 -63 -47 -68 -55
-124 -82 -192 -90 -51 -6 -80 6 -80 33 0 8 32 82 70 164 39 83 82 184 95 225
57 169 13 266 -120 266 -67 0 -132 -28 -230 -100 -38 -28 -73 -51 -77 -51 -5
0 -8 12 -8 26 0 70 -57 124 -133 126 -45 0 -189 -51 -276 -98 -24 -13 -47 -24
-52 -24 -5 0 -9 18 -9 40 0 51 -22 105 -48 119 -51 27 -71 16 -187 -102z
M3406 1633 c-227 -69 -506 -448 -506 -686 0 -115 55 -170 169 -170 45 0 70 7
120 33 106 57 258 224 351 387 l34 61 71 4 c73 5 125 23 133 47 4 11 -10 12
-76 6 -44 -4 -85 -4 -91 -1 -6 4 -1 33 15 78 31 92 32 165 2 203 -42 54 -125
68 -222 38z m182 -94 c14 -27 9 -89 -14 -162 -17 -51 -41 -65 -91 -52 -40 10
-103 77 -103 109 0 59 57 121 124 136 41 9 68 -1 84 -31z m-159 -239 c22 -11
49 -20 60 -20 11 0 22 -3 25 -8 9 -15 -90 -166 -149 -227 -69 -72 -138 -105
-183 -89 -24 9 -27 15 -27 54 1 63 68 223 142 338 l34 54 29 -41 c16 -22 48
-50 69 -61z" transform="translate(128.18177419354856, 146) scale(0.25, 0.25) translate(0.000000,296.000000) scale(0.100000,-0.100000)" fill="#d20707" stroke="none"/></g></g><g id="shape-d5d8f2ec-7799-11ed-a5c1-fdf8d6fe48ea"><g><path d="M1800 2430 c-232 -49 -450 -169 -605 -332 -138 -144 -205 -264 -213
-382 -6 -100 10 -149 66 -205 102 -101 290 -108 445 -18 100 59 201 208 228
335 17 82 8 230 -16 271 -34 58 -66 75 -140 73 -178 -2 -325 -163 -363 -398
-10 -62 -12 -98 -6 -104 7 -7 44 12 108 55 53 36 101 65 106 65 5 0 14 19 21
43 18 67 73 180 104 210 29 29 63 35 83 15 18 -18 14 -123 -8 -197 -40 -136
-145 -267 -258 -323 -50 -25 -80 -32 -140 -36 -68 -3 -81 -1 -112 20 -108 72
-104 253 9 414 57 82 202 224 286 281 148 100 263 138 420 137 124 0 153 -7
420 -94 203 -66 287 -85 344 -77 79 10 215 98 246 157 20 39 20 74 0 66 -151
-58 -200 -57 -503 4 -233 47 -373 52 -522 20z M2681 2161 c-41 -22 -67 -69
-358 -641 -114 -223 -255 -496 -315 -608 -59 -111 -108 -206 -108 -209 0 -10
142 5 195 21 l50 15 113 228 c116 232 229 426 281 482 21 23 38 31 63 31 46 0
58 -15 58 -76 0 -81 -33 -172 -142 -392 -95 -191 -100 -205 -96 -252 8 -85 48
-112 163 -111 107 1 167 24 243 95 65 61 157 175 148 184 -3 2 -27 -15 -53
-38 -62 -54 -124 -85 -198 -99 -53 -10 -61 -9 -78 7 -18 19 -16 24 77 211 117
234 150 324 144 401 -7 102 -61 145 -158 128 -86 -15 -140 -21 -140 -16 0 3
20 43 44 89 25 46 92 189 151 318 58 129 108 238 111 243 3 4 -32 8 -78 8 -60
-1 -92 -6 -117 -19z M2224 2112 c-56 -41 -194 -191 -252 -275 -62 -90 -110
-186 -248 -497 -69 -156 -129 -276 -166 -332 -145 -216 -350 -327 -585 -316
-146 7 -246 49 -278 115 -21 44 -19 61 13 93 20 20 48 32 102 44 96 21 116 32
135 71 38 81 6 158 -80 191 -152 58 -317 -83 -303 -259 15 -181 167 -280 453
-294 445 -21 809 180 998 552 67 133 99 236 147 488 29 150 65 270 106 350 19
37 34 74 34 82 0 23 -33 18 -76 -13z M3546 1529 c-191 -45 -452 -339 -512
-578 -22 -88 -16 -200 12 -238 38 -50 81 -68 165 -68 68 0 85 5 155 39 64 31
97 57 169 130 98 101 210 248 202 268 -3 8 -58 -41 -134 -119 -105 -107 -142
-138 -194 -163 -67 -31 -126 -39 -147 -18 -16 16 -15 74 3 135 l15 50 67 18
c102 28 235 98 303 161 104 97 144 222 102 318 -31 70 -97 90 -206 65z m125
-81 c16 -29 5 -109 -22 -167 -36 -74 -160 -191 -251 -236 -42 -20 -82 -35 -88
-33 -27 9 166 334 241 405 56 53 102 65 120 31z" transform="translate(242.18177419354856, 194) scale(0.25, 0.25) translate(0.000000,284.000000) scale(0.100000,-0.100000)" fill="#d20707" stroke="none"/></g></g></g></g></svg>