<?xml version="1.0" encoding="UTF-8" standalone="no"?>
<!-- Created with Inkscape (http://www.inkscape.org/) -->

<svg
   width="403.22501mm"
   height="403.22501mm"
   viewBox="0 0 403.22501 403.22499"
   version="1.1"
   id="svg62219"
   xml:space="preserve"
   inkscape:version="1.2 (dc2aeda, 2022-05-15)"
   sodipodi:docname="horrorscope.svg"
   xmlns:inkscape="http://www.inkscape.org/namespaces/inkscape"
   xmlns:sodipodi="http://sodipodi.sourceforge.net/DTD/sodipodi-0.dtd"
   xmlns:xlink="http://www.w3.org/1999/xlink"
   xmlns="http://www.w3.org/2000/svg"
   xmlns:svg="http://www.w3.org/2000/svg"><sodipodi:namedview
     id="namedview62221"
     pagecolor="#ffffff"
     bordercolor="#000000"
     borderopacity="0.25"
     inkscape:showpageshadow="2"
     inkscape:pageopacity="0.0"
     inkscape:pagecheckerboard="0"
     inkscape:deskcolor="#d1d1d1"
     inkscape:document-units="mm"
     showgrid="false"
     inkscape:zoom="0.2973261"
     inkscape:cx="285.88139"
     inkscape:cy="255.6116"
     inkscape:window-width="2008"
     inkscape:window-height="1158"
     inkscape:window-x="3460"
     inkscape:window-y="977"
     inkscape:window-maximized="0"
     inkscape:current-layer="svg62219"
     showguides="false"
     inkscape:lockguides="true" /><defs
     id="defs62216"><linearGradient
       inkscape:collect="always"
       id="linearGradient169355"><stop
         style="stop-color:#f7bd3a;stop-opacity:1;"
         offset="0"
         id="stop169351" /><stop
         style="stop-color:#f7bd3a;stop-opacity:0;"
         offset="1"
         id="stop169353" /></linearGradient><linearGradient
       inkscape:collect="always"
       id="linearGradient167545"><stop
         style="stop-color:#f0de9e;stop-opacity:1;"
         offset="0.12834205"
         id="stop167541" /><stop
         style="stop-color:#f7bd3a;stop-opacity:1;"
         offset="0.81256402"
         id="stop167543" /></linearGradient><linearGradient
       inkscape:collect="always"
       id="linearGradient142191"><stop
         style="stop-color:#9e1b05;stop-opacity:1;"
         offset="0"
         id="stop142187" /><stop
         style="stop-color:#5a441e;stop-opacity:1;"
         offset="1"
         id="stop142189" /></linearGradient><linearGradient
       inkscape:collect="always"
       id="linearGradient127519"><stop
         style="stop-color:#ded3c3;stop-opacity:1;"
         offset="0"
         id="stop127515" /><stop
         style="stop-color:#f0c66c;stop-opacity:1;"
         offset="1"
         id="stop127517" /></linearGradient><linearGradient
       inkscape:collect="always"
       id="linearGradient117408"><stop
         style="stop-color:#faedbf;stop-opacity:1;"
         offset="0.54150784"
         id="stop120379" /><stop
         style="stop-color:#e3e5e9;stop-opacity:1;"
         offset="0.86410511"
         id="stop117406" /></linearGradient><linearGradient
       inkscape:collect="always"
       id="linearGradient115631"><stop
         style="stop-color:#f6d172;stop-opacity:1;"
         offset="0"
         id="stop115629" /><stop
         style="stop-color:#960d07;stop-opacity:1;"
         offset="0.77649826"
         id="stop115627" /></linearGradient><linearGradient
       inkscape:collect="always"
       id="linearGradient115623"><stop
         style="stop-color:#e6d762;stop-opacity:0.88677979;"
         offset="0.403624"
         id="stop115621" /><stop
         style="stop-color:#940d09;stop-opacity:1;"
         offset="1"
         id="stop115619" /></linearGradient><linearGradient
       inkscape:collect="always"
       id="linearGradient110996"><stop
         style="stop-color:#960d07;stop-opacity:1;"
         offset="0.39820206"
         id="stop110992" /><stop
         style="stop-color:#f6d172;stop-opacity:1;"
         offset="1"
         id="stop110994" /></linearGradient><linearGradient
       inkscape:collect="always"
       id="linearGradient110988"><stop
         style="stop-color:#940d09;stop-opacity:1;"
         offset="0"
         id="stop110986" /><stop
         style="stop-color:#e6d762;stop-opacity:0.88677979;"
         offset="1"
         id="stop110984" /></linearGradient><linearGradient
       inkscape:collect="always"
       id="linearGradient106217"><stop
         style="stop-color:#f6ca5f;stop-opacity:0.88071615;"
         offset="0"
         id="stop106213" /><stop
         style="stop-color:#fbf5ce;stop-opacity:0.90927827;"
         offset="1"
         id="stop106215" /></linearGradient><linearGradient
       inkscape:collect="always"
       id="linearGradient103510"><stop
         style="stop-color:#fbf5ce;stop-opacity:0.80233294;"
         offset="0"
         id="stop103508" /><stop
         style="stop-color:#f6ca5f;stop-opacity:0.74623698;"
         offset="0.69706362"
         id="stop103506" /></linearGradient><linearGradient
       inkscape:collect="always"
       id="linearGradient100201"><stop
         style="stop-color:#faab11;stop-opacity:0.88491118;"
         offset="0"
         id="stop100199" /><stop
         style="stop-color:#f7eee0;stop-opacity:0.86274838;"
         offset="1"
         id="stop100197" /></linearGradient><linearGradient
       inkscape:collect="always"
       id="linearGradient98782"><stop
         style="stop-color:#dd8114;stop-opacity:0.86105609;"
         offset="0.26183879"
         id="stop98786" /><stop
         style="stop-color:#fbf5ce;stop-opacity:0.86113381;"
         offset="0.77583057"
         id="stop98778" /></linearGradient><linearGradient
       inkscape:collect="always"
       id="linearGradient83913"><stop
         style="stop-color:#9b0c02;stop-opacity:1;"
         offset="0.13465515"
         id="stop83909" /><stop
         style="stop-color:#fcc94f;stop-opacity:1;"
         offset="0.27713647"
         id="stop95173" /><stop
         style="stop-color:#feb006;stop-opacity:1;"
         offset="0.44321764"
         id="stop88337" /><stop
         style="stop-color:#f9ea89;stop-opacity:1;"
         offset="0.87421983"
         id="stop85918" /></linearGradient><linearGradient
       inkscape:collect="always"
       id="linearGradient78198"><stop
         style="stop-color:#f2ce49;stop-opacity:0.92078912;"
         offset="0"
         id="stop78194" /><stop
         style="stop-color:#d66902;stop-opacity:1;"
         offset="1"
         id="stop78196" /></linearGradient><linearGradient
       inkscape:collect="always"
       id="linearGradient77265"><stop
         style="stop-color:#f8d46a;stop-opacity:1;"
         offset="0"
         id="stop77259" /><stop
         style="stop-color:#f8d46a;stop-opacity:0.49803922;"
         offset="0.54418945"
         id="stop77261" /><stop
         style="stop-color:#9b0c02;stop-opacity:0.4991692;"
         offset="1"
         id="stop77263" /></linearGradient><linearGradient
       inkscape:collect="always"
       id="linearGradient77257"><stop
         style="stop-color:#f8d46a;stop-opacity:0.77045679;"
         offset="0"
         id="stop77251" /><stop
         style="stop-color:#f8d46a;stop-opacity:0.49803922;"
         offset="0.40649822"
         id="stop77253" /><stop
         style="stop-color:#9b0c02;stop-opacity:1;"
         offset="1"
         id="stop77255" /></linearGradient><linearGradient
       inkscape:collect="always"
       id="linearGradient77228"><stop
         style="stop-color:#f8d46a;stop-opacity:0;"
         offset="0"
         id="stop77226" /><stop
         style="stop-color:#f8d46a;stop-opacity:0.49803922;"
         offset="0.5"
         id="stop77224" /><stop
         style="stop-color:#9b0c02;stop-opacity:1;"
         offset="1"
         id="stop77222" /></linearGradient><linearGradient
       inkscape:collect="always"
       id="linearGradient76495"><stop
         style="stop-color:#f8d46a;stop-opacity:0.78861308;"
         offset="0"
         id="stop76493" /><stop
         style="stop-color:#f8d46a;stop-opacity:0.49803922;"
         offset="0.5"
         id="stop76499" /><stop
         style="stop-color:#9b0c02;stop-opacity:0.7631399;"
         offset="1"
         id="stop76491" /></linearGradient><linearGradient
       inkscape:collect="always"
       xlink:href="#linearGradient76495"
       id="linearGradient76497"
       x1="67.052971"
       y1="68.922325"
       x2="70.012993"
       y2="68.922325"
       gradientUnits="userSpaceOnUse"
       gradientTransform="translate(-30.451004,-20.012624)" /><linearGradient
       inkscape:collect="always"
       xlink:href="#linearGradient77265"
       id="linearGradient77220"
       x1="67.052971"
       y1="68.922325"
       x2="70.012993"
       y2="68.922325"
       gradientUnits="userSpaceOnUse"
       gradientTransform="translate(-30.451004,-20.012624)" /><linearGradient
       inkscape:collect="always"
       xlink:href="#linearGradient77228"
       id="linearGradient77241"
       x1="67.79818"
       y1="68.905128"
       x2="78.034584"
       y2="68.905128"
       gradientUnits="userSpaceOnUse"
       gradientTransform="translate(-30.451004,-20.012624)" /><linearGradient
       inkscape:collect="always"
       xlink:href="#linearGradient77257"
       id="linearGradient77249"
       x1="67.79818"
       y1="68.905128"
       x2="78.034584"
       y2="68.905128"
       gradientUnits="userSpaceOnUse"
       gradientTransform="translate(-30.451004,-20.012624)" /><linearGradient
       inkscape:collect="always"
       xlink:href="#linearGradient78198"
       id="linearGradient78200"
       x1="45.907089"
       y1="89.08007"
       x2="151.23911"
       y2="89.08007"
       gradientUnits="userSpaceOnUse"
       gradientTransform="translate(-30.451004,-20.012624)" /><linearGradient
       inkscape:collect="always"
       xlink:href="#linearGradient83913"
       id="linearGradient83915"
       x1="55.451183"
       y1="95.463463"
       x2="81.701561"
       y2="103.95559"
       gradientUnits="userSpaceOnUse"
       spreadMethod="pad"
       gradientTransform="translate(-30.451004,-20.012624)" /><linearGradient
       inkscape:collect="always"
       xlink:href="#linearGradient78198"
       id="linearGradient97395"
       x1="70.751678"
       y1="98.543884"
       x2="86.51561"
       y2="98.543884"
       gradientUnits="userSpaceOnUse"
       gradientTransform="translate(-30.451004,-20.012624)" /><linearGradient
       inkscape:collect="always"
       xlink:href="#linearGradient78198"
       id="linearGradient97403"
       x1="70.751678"
       y1="98.543884"
       x2="86.51561"
       y2="98.543884"
       gradientUnits="userSpaceOnUse"
       gradientTransform="translate(-30.451004,-20.012624)" /><linearGradient
       inkscape:collect="always"
       xlink:href="#linearGradient98782"
       id="linearGradient98784"
       x1="90.210175"
       y1="81.608063"
       x2="91.178024"
       y2="95.624977"
       gradientUnits="userSpaceOnUse"
       gradientTransform="translate(-30.606854,-20.401903)" /><linearGradient
       inkscape:collect="always"
       xlink:href="#linearGradient100201"
       id="linearGradient100203"
       x1="86.292709"
       y1="83.647545"
       x2="100.59286"
       y2="83.647545"
       gradientUnits="userSpaceOnUse"
       gradientTransform="translate(-30.451004,-20.012624)" /><linearGradient
       inkscape:collect="always"
       xlink:href="#linearGradient103510"
       id="linearGradient103512"
       x1="107.90064"
       y1="87.725876"
       x2="104.50443"
       y2="92.547287"
       gradientUnits="userSpaceOnUse"
       gradientTransform="translate(-30.401524,-20.690052)" /><linearGradient
       inkscape:collect="always"
       xlink:href="#linearGradient106217"
       id="linearGradient106211"
       x1="98.13607"
       y1="88.607941"
       x2="98.473137"
       y2="83.614235"
       gradientUnits="userSpaceOnUse"
       gradientTransform="translate(-30.451004,-20.012624)" /><linearGradient
       inkscape:collect="always"
       xlink:href="#linearGradient110988"
       id="linearGradient110990"
       x1="117.92224"
       y1="99.277344"
       x2="125.57727"
       y2="99.277344"
       gradientUnits="userSpaceOnUse"
       gradientTransform="matrix(0.89762135,0,0,1.065425,-17.969643,-27.206039)" /><linearGradient
       inkscape:collect="always"
       xlink:href="#linearGradient110996"
       id="linearGradient110998"
       x1="117.92224"
       y1="99.277344"
       x2="125.57727"
       y2="99.277344"
       gradientUnits="userSpaceOnUse"
       gradientTransform="matrix(0.89762135,0,0,1.065425,-17.969643,-27.206039)" /><linearGradient
       inkscape:collect="always"
       xlink:href="#linearGradient115631"
       id="linearGradient115614"
       gradientUnits="userSpaceOnUse"
       x1="117.92224"
       y1="99.277344"
       x2="125.57727"
       y2="99.277344"
       gradientTransform="matrix(0.77970582,0,0,0.93346157,-3.97939,-22.739785)" /><linearGradient
       inkscape:collect="always"
       xlink:href="#linearGradient115623"
       id="linearGradient115616"
       gradientUnits="userSpaceOnUse"
       x1="117.92224"
       y1="99.277344"
       x2="125.57727"
       y2="99.277344"
       gradientTransform="matrix(0.77970582,0,0,0.93346157,-3.97939,-22.739785)" /><linearGradient
       inkscape:collect="always"
       xlink:href="#linearGradient103510"
       id="linearGradient117274"
       gradientUnits="userSpaceOnUse"
       gradientTransform="translate(-29.998319,-20.084281)"
       x1="107.90064"
       y1="87.725876"
       x2="104.50443"
       y2="92.547287" /><linearGradient
       inkscape:collect="always"
       xlink:href="#linearGradient103510"
       id="linearGradient117297"
       gradientUnits="userSpaceOnUse"
       gradientTransform="translate(-29.43829,-21.188629)"
       x1="107.90064"
       y1="87.725876"
       x2="104.50443"
       y2="92.547287" /><linearGradient
       inkscape:collect="always"
       xlink:href="#linearGradient117408"
       id="linearGradient117410"
       x1="163.01627"
       y1="87.828552"
       x2="157.93286"
       y2="77.29493"
       gradientUnits="userSpaceOnUse"
       gradientTransform="translate(-57.785611,-3.823763)" /><linearGradient
       inkscape:collect="always"
       xlink:href="#linearGradient127519"
       id="linearGradient127521"
       x1="116.69738"
       y1="98.988258"
       x2="117.16136"
       y2="112.82782"
       gradientUnits="userSpaceOnUse"
       gradientTransform="matrix(0.03405542,-1.3374783,1.7291994,0.02634073,-92.930599,226.1825)" /><linearGradient
       inkscape:collect="always"
       xlink:href="#linearGradient142191"
       id="linearGradient142193"
       x1="109.94481"
       y1="96.676468"
       x2="125.88952"
       y2="96.676468"
       gradientUnits="userSpaceOnUse"
       gradientTransform="matrix(1.0259652,0,0,0.98057077,-3.2433633,0.32253895)" /><filter
       inkscape:collect="always"
       style="color-interpolation-filters:sRGB"
       id="filter159731"
       x="-0.050982711"
       y="-0.10125002"
       width="1.1019654"
       height="1.2025001"><feGaussianBlur
         inkscape:collect="always"
         stdDeviation="0.21834335"
         id="feGaussianBlur159733" /></filter><filter
       inkscape:collect="always"
       style="color-interpolation-filters:sRGB"
       id="filter159735"
       x="-0.24103686"
       y="-0.25439939"
       width="1.4820508"
       height="1.5087782"><feGaussianBlur
         inkscape:collect="always"
         stdDeviation="0.18587121"
         id="feGaussianBlur159737" /></filter><filter
       inkscape:collect="always"
       style="color-interpolation-filters:sRGB"
       id="filter159739"
       x="-0.069694774"
       y="-0.10945081"
       width="1.1393928"
       height="1.2189016"><feGaussianBlur
         inkscape:collect="always"
         stdDeviation="0.24505272"
         id="feGaussianBlur159741" /></filter><filter
       inkscape:collect="always"
       style="color-interpolation-filters:sRGB"
       id="filter159743"
       x="-0.0063939104"
       y="-0.0072877877"
       width="1.0127878"
       height="1.0145756"><feGaussianBlur
         inkscape:collect="always"
         stdDeviation="0.15949228"
         id="feGaussianBlur159745" /></filter><filter
       inkscape:collect="always"
       style="color-interpolation-filters:sRGB"
       id="filter159747"
       x="-0.052716766"
       y="-0.097657324"
       width="1.105023"
       height="1.1953267"><feGaussianBlur
         inkscape:collect="always"
         stdDeviation="0.23613241"
         id="feGaussianBlur159749" /></filter><filter
       inkscape:collect="always"
       style="color-interpolation-filters:sRGB"
       id="filter159751"
       x="-0.013806397"
       y="-0.0068315649"
       width="1.0276128"
       height="1.0136631"><feGaussianBlur
         inkscape:collect="always"
         stdDeviation="0.077215243"
         id="feGaussianBlur159753" /></filter><filter
       inkscape:collect="always"
       style="color-interpolation-filters:sRGB"
       id="filter159755"
       x="-0.034952312"
       y="-0.020041158"
       width="1.0698989"
       height="1.0401075"><feGaussianBlur
         inkscape:collect="always"
         stdDeviation="0.066819384"
         id="feGaussianBlur159757" /></filter><filter
       inkscape:collect="always"
       style="color-interpolation-filters:sRGB"
       id="filter159759"
       x="-0.072364039"
       y="-0.07204725"
       width="1.1447281"
       height="1.1440945"><feGaussianBlur
         inkscape:collect="always"
         stdDeviation="0.14116376"
         id="feGaussianBlur159761" /></filter><filter
       inkscape:collect="always"
       style="color-interpolation-filters:sRGB"
       id="filter159763"
       x="-0.15869433"
       y="-0.14932625"
       width="1.3150393"
       height="1.297242"><feGaussianBlur
         inkscape:collect="always"
         stdDeviation="0.093916351"
         id="feGaussianBlur159765" /></filter><filter
       inkscape:collect="always"
       style="color-interpolation-filters:sRGB"
       id="filter159767"
       x="-0.14756309"
       y="-0.14012392"
       width="1.2927215"
       height="1.2789382"><feGaussianBlur
         inkscape:collect="always"
         stdDeviation="0.082928048"
         id="feGaussianBlur159769" /></filter><filter
       inkscape:collect="always"
       style="color-interpolation-filters:sRGB"
       id="filter159771"
       x="-0.052354821"
       y="-0.042319905"
       width="1.104708"
       height="1.0846396"><feGaussianBlur
         inkscape:collect="always"
         stdDeviation="0.13498702"
         id="feGaussianBlur159773" /></filter><filter
       inkscape:collect="always"
       style="color-interpolation-filters:sRGB"
       id="filter159775"
       x="-0.058193961"
       y="-0.037923298"
       width="1.1163488"
       height="1.0758451"><feGaussianBlur
         inkscape:collect="always"
         stdDeviation="0.11943329"
         id="feGaussianBlur159777" /></filter><filter
       inkscape:collect="always"
       style="color-interpolation-filters:sRGB"
       id="filter159779"
       x="-0.035633664"
       y="-5.3103301"
       width="1.0712673"
       height="11.62066"><feGaussianBlur
         inkscape:collect="always"
         stdDeviation="0.087966042"
         id="feGaussianBlur159781" /></filter><filter
       inkscape:collect="always"
       style="color-interpolation-filters:sRGB"
       id="filter159783"
       x="-0.029446785"
       y="-1.7124314"
       width="1.0588936"
       height="4.4248628"><feGaussianBlur
         inkscape:collect="always"
         stdDeviation="0.062462325"
         id="feGaussianBlur159785" /></filter><filter
       inkscape:collect="always"
       style="color-interpolation-filters:sRGB"
       id="filter159787"
       x="-0.12748545"
       y="-0.033735568"
       width="1.2558413"
       height="1.0674711"><feGaussianBlur
         inkscape:collect="always"
         stdDeviation="0.1377107"
         id="feGaussianBlur159789" /></filter><filter
       inkscape:collect="always"
       style="color-interpolation-filters:sRGB"
       id="filter159791"
       x="-0.057919312"
       y="-4.0796401"
       width="1.1158386"
       height="9.1592802"><feGaussianBlur
         inkscape:collect="always"
         stdDeviation="0.044992066"
         id="feGaussianBlur159793" /></filter><filter
       inkscape:collect="always"
       style="color-interpolation-filters:sRGB"
       id="filter160521"
       x="-0.035909979"
       y="-0.15008229"
       width="1.0718231"
       height="1.3001636"><feGaussianBlur
         inkscape:collect="always"
         stdDeviation="0.040411814"
         id="feGaussianBlur160523" /></filter><filter
       inkscape:collect="always"
       style="color-interpolation-filters:sRGB"
       id="filter160525"
       x="-0.11349519"
       y="-0.12417245"
       width="1.2269809"
       height="1.2483322"><feGaussianBlur
         inkscape:collect="always"
         stdDeviation="0.010893253"
         id="feGaussianBlur160527" /></filter><linearGradient
       inkscape:collect="always"
       xlink:href="#linearGradient167545"
       id="linearGradient167547"
       x1="99.87455"
       y1="106.9389"
       x2="114.35971"
       y2="117.75094"
       gradientUnits="userSpaceOnUse"
       gradientTransform="translate(-0.83701156,1.9463764)" /><filter
       inkscape:collect="always"
       style="color-interpolation-filters:sRGB"
       id="filter169347"
       x="-0.027179422"
       y="-0.029214251"
       width="1.0543763"
       height="1.0584318"><feGaussianBlur
         inkscape:collect="always"
         stdDeviation="0.1015111"
         id="feGaussianBlur169349" /></filter><linearGradient
       inkscape:collect="always"
       xlink:href="#linearGradient169355"
       id="linearGradient169357"
       x1="95.689072"
       y1="116.43933"
       x2="112.71248"
       y2="116.43933"
       gradientUnits="userSpaceOnUse" /><filter
       inkscape:collect="always"
       style="color-interpolation-filters:sRGB"
       id="filter171179"
       x="-0.037312664"
       y="-0.06115532"
       width="1.0746253"
       height="1.1223106"><feGaussianBlur
         inkscape:collect="always"
         stdDeviation="0.056264422"
         id="feGaussianBlur171181" /></filter><filter
       inkscape:collect="always"
       style="color-interpolation-filters:sRGB"
       id="filter174499"
       x="-0.071563241"
       y="-0.15512335"
       width="1.143125"
       height="1.3102458"><feGaussianBlur
         inkscape:collect="always"
         stdDeviation="0.21372307"
         id="feGaussianBlur174501" /></filter><clipPath
       id="frame-clip-e6a121b0-7a2d-11ed-8177-5ba7271a87bc-09233520-7a2e-11ed-8632-d751a8d374ce"
       class="frame-clip"><rect
         x="0"
         y="0"
         width="2677"
         height="2577"
         id="rect176641" /></clipPath><clipPath
       id="frame-clip-5a99dad0-c52f-11ec-bf49-1d978c5d01b4-5de5d0e0-7a2e-11ed-9c41-8334918575b2"
       class="frame-clip"><rect
         x="0"
         y="0"
         width="512"
         height="512"
         id="rect176665" /></clipPath><clipPath
       id="5df03120-7a2e-11ed-9c41-8334918575b2-clip_12"
       transform="matrix(-0.05080615396592892,0,0,-0.07335676706322668,191.59968947571147,327.8692791300412)"><use
         xlink:href="#5df03120-7a2e-11ed-9c41-8334918575b2-artboard_12"
         clip-rule="evenodd"
         id="use176676" /></clipPath><rect
       width="266"
       height="280"
       id="5df03120-7a2e-11ed-9c41-8334918575b2-artboard_12" /><clipPath
       id="5df51320-7a2e-11ed-9c41-8334918575b2-clip_7"
       transform="matrix(2.3953069246572722,0,0,1.305304014033802,128.6054177719725,226.57930288718921)"><use
         xlink:href="#5df51320-7a2e-11ed-9c41-8334918575b2-artboard_7"
         clip-rule="evenodd"
         id="use176686" /></clipPath><rect
       width="112"
       height="44"
       id="5df51320-7a2e-11ed-9c41-8334918575b2-artboard_7" /><clipPath
       id="5df70ef0-7a2e-11ed-9c41-8334918575b2-clip_6"
       transform="matrix(1.7029989683990554,0,0,1.958389327146569,144.3203598801988,180.97703945738505)"><use
         xlink:href="#5df70ef0-7a2e-11ed-9c41-8334918575b2-artboard_6"
         clip-rule="evenodd"
         id="use176705" /></clipPath><rect
       width="112"
       height="24"
       id="5df70ef0-7a2e-11ed-9c41-8334918575b2-artboard_6" /><clipPath
       id="5df86e80-7a2e-11ed-9c41-8334918575b2-clip_9"
       transform="matrix(-0.015402260199383164,0,0,-0.01613088828862774,251.66002842980726,377.55898601789255)"><use
         xlink:href="#5df86e80-7a2e-11ed-9c41-8334918575b2-artboard_9"
         clip-rule="evenodd"
         id="use176718" /></clipPath><rect
       width="108"
       height="44"
       id="5df86e80-7a2e-11ed-9c41-8334918575b2-artboard_9" /><clipPath
       id="5dfb54b0-7a2e-11ed-9c41-8334918575b2-clip_10"
       transform="matrix(2.076411072147352,0,0,-12.818888439168676,218.30491883900777,474.1648232749458)"><use
         xlink:href="#5dfb54b0-7a2e-11ed-9c41-8334918575b2-artboard_10"
         clip-rule="evenodd"
         id="use176734" /></clipPath><rect
       width="56"
       height="24"
       id="5dfb54b0-7a2e-11ed-9c41-8334918575b2-artboard_10" /></defs><rect
     style="display:inline;fill:#e0dcd8;fill-opacity:1;stroke:#dedad6;stroke-width:5.84321;stroke-linecap:round;stroke-linejoin:round;stroke-dasharray:none;stroke-opacity:1"
     id="rect79906"
     width="397.38181"
     height="397.38181"
     x="2.9216051"
     y="2.9216051"
     rx="23.719116"
     ry="23.719118" /><g
     id="g175927"
     transform="matrix(3.242963,0,0,3.242963,-19.30492,-21.28502)"><ellipse
       style="display:inline;fill:#d3d9db;fill-opacity:1;stroke:none;stroke-width:1.691;stroke-linecap:round;stroke-linejoin:round;stroke-dasharray:none;stroke-opacity:0.800832"
       id="path63493-3"
       cx="68.163033"
       cy="68.709023"
       rx="51.820507"
       ry="54.852497" /><path
       style="display:inline;fill:#abbbbb;fill-opacity:1;stroke:#abbbbb;stroke-width:0.690999;stroke-linecap:round;stroke-linejoin:round;stroke-dasharray:none;stroke-opacity:1"
       d="m 67.655972,18.124495 0.06663,-4.067385 c 35.130868,0.748544 59.590008,34.414242 50.319178,70.492186 l -6.77825,-1.19225 C 115.89285,45.383035 104.31342,20.71238 67.655972,18.124495 Z"
       id="path150990"
       sodipodi:nodetypes="ccccc" /><path
       style="fill:url(#linearGradient83915);fill-opacity:1;stroke:none;stroke-width:1.291;stroke-linecap:round;stroke-linejoin:round;stroke-dasharray:none;stroke-opacity:1;filter:url(#filter159751)"
       d="m 39.927077,68.252036 0.08098,-2.999899 C 27.155858,67.464809 21.222693,81.367106 32.725528,92.378656 l 3.315879,-2.97997 c -4.152119,-9.839522 -5.10352,-17.218021 3.88567,-21.14665 z"
       id="path80363"
       sodipodi:nodetypes="ccccc" /><path
       style="display:inline;fill:#9d0d02;fill-opacity:1;stroke:#9e0d01;stroke-width:0.507;stroke-linecap:round;stroke-linejoin:round;stroke-opacity:1;filter:url(#filter159739)"
       d="m 34.514064,104.429 12.07533,0.0272 -0.0948,7.62784 -3.73097,0.0345 z"
       id="path66942"
       sodipodi:nodetypes="ccccc" /><path
       style="fill:#9d0d02;fill-opacity:1;stroke:#9e0d01;stroke-width:0.505;stroke-linecap:round;stroke-linejoin:round;stroke-dasharray:none;stroke-opacity:1;filter:url(#filter159731)"
       d="m 64.076643,104.37509 15.214523,0.0821 0.0166,7.58727 -15.205387,-0.066 z"
       id="path69812"
       sodipodi:nodetypes="ccccc" /><path
       style="fill:url(#linearGradient76497);fill-opacity:1;stroke:url(#linearGradient77220);stroke-width:0.505;stroke-linecap:round;stroke-linejoin:round;stroke-dasharray:none;stroke-opacity:1;filter:url(#filter160525)"
       d="m 36.854458,47.787712 0.517437,2.244005 1.937621,-2.22748 z"
       id="path73598" /><path
       style="fill:#faf2ba;fill-opacity:1;stroke:none;stroke-width:0.391001;stroke-linecap:round;stroke-linejoin:round;stroke-dasharray:none;stroke-opacity:1;filter:url(#filter171179)"
       d="m 42.822643,98.22723 c -0.333601,0.86671 -0.431687,1.63321 -0.07929,2.20806 l 3.120284,-0.10199 c 0.281783,-0.21949 0.431167,-0.4756 0.03809,-0.88173 z"
       id="path169413"
       sodipodi:nodetypes="ccccc" /><path
       style="fill:url(#linearGradient77249);fill-opacity:1;stroke:url(#linearGradient77241);stroke-width:0.505;stroke-linecap:round;stroke-linejoin:round;stroke-dasharray:none;stroke-opacity:1;filter:url(#filter160521)"
       d="m 39.636025,47.728188 7.566334,0.187966 0.128723,1.696783 -9.731436,0.443894 z"
       id="path77233" /><path
       style="fill:#9d0d02;fill-opacity:1;stroke:#9d0d02;stroke-width:1.691;stroke-linecap:round;stroke-linejoin:round;stroke-dasharray:none;stroke-opacity:1;filter:url(#filter159735)"
       d="m 95.078816,104.38987 0.0657,5.07701 5.292774,-4.91229 z"
       id="path77325" /><path
       style="fill:#9d0d02;fill-opacity:1;stroke:#9d0d02;stroke-width:1.291;stroke-linecap:round;stroke-linejoin:round;stroke-dasharray:none;stroke-opacity:1;filter:url(#filter159747)"
       d="m 62.41824,83.986916 c -1.03681,3.32131 -2.968612,6.06722 -7.027379,7.44568 -0.499402,0.89643 5.022063,4.16597 9.973347,4.65781 2.23552,0.22207 13.243238,0.60801 12.976188,-0.0873 l -0.51829,-1.19498 c -4.41514,-0.79885 -8.05835,-3.14333 -11.164784,-6.56264 z"
       id="path78340"
       sodipodi:nodetypes="ccscccc" /><path
       style="fill:url(#linearGradient97395);fill-opacity:1;stroke:url(#linearGradient97403);stroke-width:0.691;stroke-linecap:round;stroke-linejoin:round;stroke-dasharray:none;stroke-opacity:0.664424;filter:url(#filter159755)"
       d="m 55.419262,66.164685 c -19.992001,-2.89132 -17.724718,21.359831 -2.631694,24.970751 0.711001,-0.87308 0.827346,-3.20899 0.0506,-2.85503 C 39.06502,75.347896 47.379203,70.070145 55.419262,66.164685 Z"
       id="path81553"
       sodipodi:nodetypes="cccc" /><path
       style="mix-blend-mode:normal;fill:url(#linearGradient110998);fill-opacity:1;stroke:url(#linearGradient110990);stroke-width:1.29075;stroke-linecap:round;stroke-linejoin:round;stroke-dasharray:none;stroke-opacity:0.89932;filter:url(#filter159767)"
       d="m 88.940846,80.239586 c 1.87878,2.79742 6.50688,0.96242 4.88036,-3.185295 -2.26321,-3.899544 -6.84048,0.738216 -4.88036,3.185295 z"
       id="path81555"
       sodipodi:nodetypes="ccc" /><path
       style="fill:url(#linearGradient115614);fill-opacity:1;stroke:url(#linearGradient115616);stroke-width:1.12603;stroke-linecap:round;stroke-linejoin:round;stroke-dasharray:none;stroke-opacity:0.89932;filter:url(#filter159763)"
       d="m 88.886866,71.397628 c 1.63197,2.450934 5.6521,0.843215 4.23925,-2.790756 -1.9659,-3.416547 -5.94189,0.646781 -4.23925,2.790756 z"
       id="path81555-3"
       sodipodi:nodetypes="ccc" /><path
       style="fill:#b6caca;fill-opacity:1;stroke:#f2ebe8;stroke-width:0.690999;stroke-linecap:round;stroke-linejoin:round;stroke-dasharray:none;stroke-opacity:1;filter:url(#filter159771)"
       d="m 95.215586,57.380449 c 2.51096,0.0091 5.889444,2.457303 12.787124,14.799545 l -12.443204,1.019683 z"
       id="path157700"
       sodipodi:nodetypes="cccc" /><path
       style="fill:none;fill-opacity:1;stroke:#fdefda;stroke-width:0.891;stroke-linecap:round;stroke-linejoin:round;stroke-dasharray:none;stroke-opacity:0.958493"
       d="m 94.879716,58.30281 0.2602,14.28619"
       id="path81561" /><path
       style="display:inline;mix-blend-mode:normal;fill:none;fill-opacity:1;stroke:url(#linearGradient142193);stroke-width:0.693081;stroke-linecap:round;stroke-linejoin:round;stroke-dasharray:none;stroke-opacity:0.723102;filter:url(#filter159779)"
       d="m 109.91065,95.173168 15.64978,-0.105014"
       id="path81561-7"
       sodipodi:nodetypes="cc"
       transform="rotate(1.5636731,851.33393,-1025.5796)" /><path
       style="display:inline;fill:none;fill-opacity:1;stroke:url(#linearGradient127521);stroke-width:1.35528;stroke-linecap:round;stroke-linejoin:round;stroke-dasharray:none;stroke-opacity:0.723102;filter:url(#filter159783)"
       d="M 80.312856,73.7646 108.41608,73.28134"
       id="path81561-7-9"
       sodipodi:nodetypes="cc" /><path
       style="fill:none;fill-opacity:0.87564;stroke:url(#linearGradient117410);stroke-width:0.991;stroke-linecap:round;stroke-linejoin:round;stroke-dasharray:none;stroke-opacity:1;filter:url(#filter159775)"
       d="m 95.201036,94.845276 c 11.150234,-5.87087 12.666074,-9.47093 13.431634,-20.487321 -4.28446,-0.212337 -8.61712,-0.190366 -13.016544,0.156184 -0.70097,7.428857 -0.31407,13.622127 -0.41509,20.331137 z"
       id="path81559"
       sodipodi:nodetypes="cccc" /><path
       style="display:inline;fill:#9b0c02;fill-opacity:1;stroke:#9b0c01;stroke-width:0.505;stroke-linecap:round;stroke-linejoin:round;stroke-dasharray:none;stroke-opacity:1;filter:url(#filter159743)"
       d="M 42.774442,98.155816 C 25.273813,93.258886 18.512136,71.328537 39.829393,65.271994 l -2.076111,-10.367738 -1.330696,0.0055 -0.64122,-3.142951 c 1.049055,-0.743891 1.767162,-1.620402 -0.194755,-3.570875 l 0.402413,-6.670265 C 55.918272,36.084748 60.23082,45.374916 57.417743,57.682156 76.160736,34.805429 103.07699,56.729159 107.26194,71.407642 l 1.86052,0.02231 c 1.11172,14.734794 -5.39266,20.024544 -13.193014,23.707094 l 12.121424,0.23579 2.67088,-4.26519 3.69285,0.25161 3.22973,-7.54605 -5.53775,-0.0875 C 120.75235,61.053979 109.3551,16.544048 67.410832,17.681809 l 0.169704,-4.346619 -7.747434,1.137562 0.102849,3.905332 C 41.179805,21.043542 31.521604,34.570016 23.683161,50.268895 l -3.791265,-0.145251 -1.60372,6.608427 2.821024,-0.09789 c -3.024238,15.341408 1.728311,29.661845 9.807598,43.871129 l 11.556706,-0.21498 c -0.457108,-0.683764 -0.244013,-1.400884 0.300938,-2.134514 z"
       id="path69816"
       sodipodi:nodetypes="cccccccccccccccccccccccccccc" /><path
       style="fill:none;fill-opacity:1;stroke:url(#linearGradient100203);stroke-width:1.291;stroke-linecap:round;stroke-linejoin:round;stroke-dasharray:none;stroke-opacity:0.723102;filter:url(#filter159791)"
       d="M 56.487202,63.727269 69.496351,63.542576"
       id="path81561-1"
       sodipodi:nodetypes="cc" /><path
       style="fill:none;fill-opacity:1;stroke:url(#linearGradient98784);stroke-width:0.991;stroke-linecap:round;stroke-linejoin:round;stroke-dasharray:none;stroke-opacity:1;filter:url(#filter159787)"
       d="M 57.477879,58.529123 C 53.000234,69.222177 56.929263,78.06629 61.954687,83.013836"
       id="path97510"
       sodipodi:nodetypes="cc" /><ellipse
       style="display:inline;fill:none;stroke:url(#linearGradient78200);stroke-width:1.691;stroke-linecap:round;stroke-linejoin:round;stroke-dasharray:none;stroke-opacity:0.800832"
       id="path63493"
       cx="68.122093"
       cy="69.067444"
       rx="51.820507"
       ry="54.852497" /><ellipse
       style="display:inline;fill:none;fill-opacity:1;stroke:url(#linearGradient117297);stroke-width:1.044;stroke-linecap:round;stroke-linejoin:round;stroke-dasharray:none;stroke-opacity:1;filter:url(#filter159759)"
       id="path103504-8"
       ry="5.9738092"
       rx="5.9476576"
       cy="67.624756"
       cx="75.962692" /><ellipse
       style="fill:none;fill-opacity:1;stroke:url(#linearGradient106211);stroke-width:1.02;stroke-linecap:round;stroke-linejoin:round;stroke-dasharray:none;stroke-opacity:1;filter:url(#filter159759)"
       id="path103502"
       cx="75.169327"
       cy="68.595314"
       rx="6.7240124"
       ry="6.8992281" /><ellipse
       style="fill:none;fill-opacity:1;stroke:url(#linearGradient103512);stroke-width:1.044;stroke-linecap:round;stroke-linejoin:round;stroke-dasharray:none;stroke-opacity:1;filter:url(#filter159759)"
       id="path103504"
       ry="5.9738092"
       rx="5.9476576"
       cy="68.123329"
       cx="74.999474" /><ellipse
       style="display:inline;fill:none;fill-opacity:1;stroke:url(#linearGradient117274);stroke-width:1.044;stroke-linecap:round;stroke-linejoin:round;stroke-dasharray:none;stroke-opacity:1;filter:url(#filter159759)"
       id="path103504-2"
       ry="5.9738092"
       rx="5.9476576"
       cy="68.729095"
       cx="75.402679" /><path
       style="mix-blend-mode:normal;fill:#ffb300;fill-opacity:1;stroke:#f3cd6c;stroke-width:0.091001;stroke-linecap:round;stroke-linejoin:round;stroke-dasharray:none;stroke-opacity:1;filter:url(#filter174499)"
       d="m 89.191086,99.192196 c -0.22194,-0.32665 -0.68144,-0.84815 -0.54976,-1.33628 0.1204,-0.39313 1.06768,-0.53586 1.62805,-0.73751 l -7.80338,-1.52615 0.16176,1.39279 c 1.66774,0.32385 4.57025,1.50191 6.56333,2.20715 z"
       id="path171185"
       sodipodi:nodetypes="cccccc" /><path
       style="fill:url(#linearGradient167547);fill-opacity:1;stroke:url(#linearGradient169357);stroke-width:0.391;stroke-linecap:round;stroke-linejoin:round;stroke-dasharray:none;stroke-opacity:1;filter:url(#filter169347)"
       d="m 96.127895,109.1394 c 3.534353,1.05362 10.742895,0.82005 16.141635,14.81327 0.0953,-7.01273 -1.59369,-10.50196 -3.70436,-12.51415 -5.70482,-4.34136 -8.31145,-1.57846 -12.437275,-2.29912 z"
       id="path161536"
       sodipodi:nodetypes="cccc"
       transform="translate(-29.33709,-21.88297)" /></g><g
     style="-webkit-print-color-adjust:exact"
     id="g176663"
     transform="matrix(0.26458333,0,0,0.26458333,636.2747,-61.534265)" /><g
     style="-webkit-print-color-adjust:exact"
     id="g176851"
     transform="matrix(2.3142014,0,0,2.3707425,-381.30931,-992.21055)"><g
       id="shape-5a99dad0-c52f-11ec-bf49-1d978c5d01b4"
       clip-path="url(#frame-clip-5a99dad0-c52f-11ec-bf49-1d978c5d01b4-5de5d0e0-7a2e-11ed-9c41-8334918575b2)"><defs
         id="defs176668"><clipPath
           id="clipPath176776"
           class="frame-clip"><rect
             x="0"
             y="0"
             width="512"
             height="512"
             id="rect176774" /></clipPath></defs><g
         id="shape-50d7cf40-c532-11ec-bf49-1d978c5d01b4"><g
           id="g176748"><path
             d="M 80,1290 V 840 h 60 60 v 200 200 H 300 400 V 1040 840 h 60 60 v 450 450 H 460 400 V 1540 1340 H 300 200 v 200 200 H 140 80 Z m 2751,437 c -19,-7 -44,-25 -55,-40 -19,-26 -21,-42 -21,-192 0,-150 2,-166 21,-192 28,-38 73,-52 172,-52 l 83,-1 -3,-152 -3,-153 h -70 -70 l -3,73 -3,72 h -59 -60 v -80 c 0,-143 28,-165 207,-165 98,0 115,3 140,21 46,34 55,80 51,254 -4,210 -11,219 -178,229 l -95,6 v 140 140 h 70 70 l 3,-72 3,-73 h 59 60 v 89 c 0,103 -16,133 -78,151 -50,13 -199,12 -241,-3 z M 750,1533 c -87,-28 -90,-41 -90,-345 0,-272 2,-284 53,-322 25,-19 42,-21 145,-21 77,0 128,5 150,14 59,25 62,41 62,333 0,243 -2,265 -20,295 -13,21 -31,35 -57,42 -38,11 -214,14 -243,4 z m 175,-93 25,-10 -2,-242 -3,-243 h -80 -80 l -3,243 -2,243 22,9 c 31,12 91,12 123,0 z m 275,-250 V 840 h 60 59 l 3,275 c 3,265 4,275 24,296 14,13 39,23 68,26 l 46,6 v 48 c 0,43 -3,49 -20,49 -34,0 -76,-27 -99,-62 l -21,-33 v 48 47 h -60 -60 z m 340,0 V 840 h 60 60 v 254 c 0,159 4,265 11,285 13,37 53,61 104,61 h 35 v 50 c 0,46 -2,50 -25,50 -39,0 -74,-21 -98,-59 l -22,-36 -3,48 -3,47 h -60 -59 z m 403,336 c -59,-27 -63,-46 -63,-336 0,-290 3,-306 62,-331 22,-9 73,-14 150,-14 103,0 120,2 145,21 51,38 53,50 53,320 0,270 -5,301 -48,331 -37,24 -251,31 -299,9 z m 202,-86 25,-10 -2,-242 -3,-243 h -80 -80 l -3,247 c -2,229 -1,247 15,251 33,9 102,7 128,-3 z m 275,-250 V 840 h 60 59 l 3,275 c 3,265 4,275 24,296 14,13 39,23 68,26 l 46,6 v 48 c 0,43 -3,49 -20,49 -34,0 -76,-27 -99,-62 l -21,-33 v 48 47 h -60 -60 z m 923,335 c -66,-28 -68,-39 -68,-335 0,-285 2,-294 52,-328 22,-13 49,-17 138,-17 172,0 205,24 205,150 v 65 h -60 -59 l -3,-57 -3,-58 -65,-3 c -52,-2 -67,0 -77,14 -10,13 -13,75 -13,234 0,159 3,221 13,234 10,14 25,16 77,14 l 65,-3 3,-52 3,-53 h 60 59 v 63 c 0,80 -23,121 -77,136 -55,15 -212,13 -250,-4 z m 527,8 c -87,-28 -90,-41 -90,-345 0,-272 2,-284 53,-322 25,-19 42,-21 145,-21 77,0 128,5 150,14 59,25 62,41 62,333 0,243 -2,265 -20,295 -13,21 -31,35 -57,42 -38,11 -214,14 -243,4 z m 175,-93 25,-10 -2,-242 -3,-243 h -80 -80 l -3,243 -2,243 22,9 c 31,12 91,12 123,0 z m 275,-345 V 650 h 60 60 v 126 127 l 23,-25 c 37,-40 111,-46 190,-16 53,21 57,42 57,330 0,242 -2,266 -19,294 -24,40 -75,58 -149,52 -46,-4 -59,-10 -79,-34 l -23,-29 v 33 32 h -60 -60 z m 265,95 V 945 l -58,-3 c -35,-2 -64,2 -73,9 -19,16 -21,458 -2,477 8,8 35,12 73,10 l 60,-3 z m 319,336 c -63,-28 -64,-32 -64,-339 V 908 l 28,-28 c 23,-23 41,-29 96,-35 75,-8 174,0 213,18 35,16 53,57 53,122 v 55 h -59 -60 l -3,-47 -3,-48 -69,-3 c -49,-2 -72,1 -77,10 -5,7 -9,57 -9,111 v 97 h 145 145 l -1,133 c 0,219 -18,241 -192,245 -79,1 -121,-2 -143,-12 z m 207,-97 c 5,-8 9,-53 9,-101 v -88 h -85 -85 v 88 c 0,89 4,104 30,115 27,11 121,1 131,-14 z m 299,95 c -54,-22 -64,-46 -68,-164 -7,-172 18,-206 160,-218 l 83,-7 3,-97 3,-97 -35,-6 c -19,-4 -48,-3 -63,2 -24,8 -28,16 -31,51 l -3,42 h -55 -54 v -61 c 0,-53 3,-64 28,-89 23,-23 41,-29 94,-35 36,-4 86,-4 109,0 115,17 132,45 127,212 l -3,115 -33,29 c -29,26 -39,29 -103,29 -106,0 -109,3 -109,114 0,104 1,106 69,106 47,0 61,-14 61,-62 v -38 h 60 60 v 43 c 0,57 -27,108 -70,129 -44,23 -179,24 -230,2 z"
             transform="matrix(0.025,0,0,-0.025,179.5,483.37205)"
             fill="#8e0505"
             stroke="none"
             id="path176746"
             style="fill:#7a0505;fill-opacity:1;stroke:#32333e;stroke-width:4.423;stroke-dasharray:none;stroke-opacity:1" /></g></g></g></g></svg>
