<?xml version="1.0" encoding="UTF-8" standalone="no"?>
<!-- Created with Inkscape (http://www.inkscape.org/) -->

<svg
   width="273.79797mm"
   height="272.8555mm"
   viewBox="0 0 273.79797 272.8555"
   version="1.1"
   id="svg3453"
   xml:space="preserve"
   inkscape:version="1.2 (dc2aeda, 2022-05-15)"
   sodipodi:docname="soundscape-logo-icon-take3.svg"
   xmlns:inkscape="http://www.inkscape.org/namespaces/inkscape"
   xmlns:sodipodi="http://sodipodi.sourceforge.net/DTD/sodipodi-0.dtd"
   xmlns:xlink="http://www.w3.org/1999/xlink"
   xmlns="http://www.w3.org/2000/svg"
   xmlns:svg="http://www.w3.org/2000/svg"><sodipodi:namedview
     id="namedview3455"
     pagecolor="#ffffff"
     bordercolor="#000000"
     borderopacity="0.25"
     inkscape:showpageshadow="2"
     inkscape:pageopacity="0.0"
     inkscape:pagecheckerboard="0"
     inkscape:deskcolor="#d1d1d1"
     inkscape:document-units="mm"
     showgrid="false"
     inkscape:zoom="0.5946522"
     inkscape:cx="174.05132"
     inkscape:cy="592.78348"
     inkscape:window-width="1902"
     inkscape:window-height="1209"
     inkscape:window-x="3989"
     inkscape:window-y="1078"
     inkscape:window-maximized="0"
     inkscape:current-layer="layer1" /><defs
     id="defs3450"><linearGradient
       inkscape:collect="always"
       id="linearGradient46541"><stop
         style="stop-color:#33000a;stop-opacity:1;"
         offset="0"
         id="stop46537" /><stop
         style="stop-color:#33130a;stop-opacity:0.59490412;"
         offset="1"
         id="stop46539" /></linearGradient><linearGradient
       inkscape:collect="always"
       id="linearGradient41115"><stop
         style="stop-color:#e3ac07;stop-opacity:0.67480296;"
         offset="0.23790579"
         id="stop41117" /><stop
         style="stop-color:#f304c7;stop-opacity:0.54787374;"
         offset="0.48452279"
         id="stop41111" /></linearGradient><linearGradient
       inkscape:collect="always"
       id="linearGradient33580"><stop
         style="stop-color:#e10271;stop-opacity:1;"
         offset="0"
         id="stop33576" /><stop
         style="stop-color:#f0653b;stop-opacity:1;"
         offset="0.73877066"
         id="stop36965" /><stop
         style="stop-color:#ffc905;stop-opacity:0.90145946;"
         offset="1"
         id="stop33578" /></linearGradient><linearGradient
       inkscape:collect="always"
       id="linearGradient33002"><stop
         style="stop-color:#ea021a;stop-opacity:1;"
         offset="0.38853189"
         id="stop32996" /><stop
         style="stop-color:#800510;stop-opacity:1;"
         offset="0.66140825"
         id="stop32998" /><stop
         style="stop-color:#350907;stop-opacity:1;"
         offset="1"
         id="stop33000" /></linearGradient><linearGradient
       inkscape:collect="always"
       id="linearGradient25837"><stop
         style="stop-color:#fe0e8c;stop-opacity:1;"
         offset="0"
         id="stop25833" /><stop
         style="stop-color:#8a0e8c;stop-opacity:0.83529413;"
         offset="0.65816969"
         id="stop25841" /><stop
         style="stop-color:#fe0e8c;stop-opacity:0.6711027;"
         offset="1"
         id="stop25835" /></linearGradient><linearGradient
       inkscape:collect="always"
       id="linearGradient25827"><stop
         style="stop-color:#fd9a04;stop-opacity:1;"
         offset="0"
         id="stop25823" /><stop
         style="stop-color:#fd6571;stop-opacity:0.9999454;"
         offset="0.65089846"
         id="stop25831" /><stop
         style="stop-color:#fd9a04;stop-opacity:1;"
         offset="1"
         id="stop25825" /></linearGradient><linearGradient
       inkscape:collect="always"
       id="linearGradient21439"><stop
         style="stop-color:#ea021a;stop-opacity:1;"
         offset="0"
         id="stop21437" /><stop
         style="stop-color:#800510;stop-opacity:1;"
         offset="0.44013861"
         id="stop21441" /><stop
         style="stop-color:#350907;stop-opacity:1;"
         offset="0.69771242"
         id="stop21435" /></linearGradient><linearGradient
       inkscape:collect="always"
       id="linearGradient15970"><stop
         style="stop-color:#1f0907;stop-opacity:1;"
         offset="0.10715208"
         id="stop15966" /><stop
         style="stop-color:#ea021a;stop-opacity:1;"
         offset="0.92242885"
         id="stop15968" /></linearGradient><linearGradient
       inkscape:collect="always"
       xlink:href="#linearGradient15970"
       id="linearGradient15972"
       x1="341.68326"
       y1="12.419894"
       x2="377.70569"
       y2="12.419894"
       gradientUnits="userSpaceOnUse" /><linearGradient
       inkscape:collect="always"
       xlink:href="#linearGradient21439"
       id="linearGradient21433"
       x1="316.7529"
       y1="10.341199"
       x2="357.28287"
       y2="10.341199"
       gradientUnits="userSpaceOnUse"
       spreadMethod="pad" /><linearGradient
       inkscape:collect="always"
       xlink:href="#linearGradient25827"
       id="linearGradient25829"
       x1="251.5905"
       y1="72.774925"
       x2="523.02264"
       y2="72.774925"
       gradientUnits="userSpaceOnUse" /><linearGradient
       inkscape:collect="always"
       xlink:href="#linearGradient25837"
       id="linearGradient25839"
       x1="251.38528"
       y1="143.9016"
       x2="523.57385"
       y2="143.9016"
       gradientUnits="userSpaceOnUse" /><linearGradient
       inkscape:collect="always"
       xlink:href="#linearGradient33002"
       id="linearGradient32994"
       x1="289.16003"
       y1="10.091243"
       x2="330.51968"
       y2="10.091243"
       gradientUnits="userSpaceOnUse" /><linearGradient
       inkscape:collect="always"
       xlink:href="#linearGradient33580"
       id="linearGradient33582"
       x1="436.45035"
       y1="66.243118"
       x2="446.1694"
       y2="66.243118"
       gradientUnits="userSpaceOnUse" /><linearGradient
       inkscape:collect="always"
       xlink:href="#linearGradient41115"
       id="linearGradient41107"
       x1="425.87332"
       y1="72.724266"
       x2="430.18274"
       y2="72.724266"
       gradientUnits="userSpaceOnUse" /><linearGradient
       inkscape:collect="always"
       xlink:href="#linearGradient46541"
       id="linearGradient46543"
       x1="425.61832"
       y1="75.668419"
       x2="454.80435"
       y2="75.668419"
       gradientUnits="userSpaceOnUse" /><linearGradient
       inkscape:collect="always"
       xlink:href="#linearGradient33580"
       id="linearGradient46967"
       gradientUnits="userSpaceOnUse"
       x1="436.45035"
       y1="66.243118"
       x2="446.1694"
       y2="66.243118" /><linearGradient
       inkscape:collect="always"
       xlink:href="#linearGradient33580"
       id="linearGradient46969"
       gradientUnits="userSpaceOnUse"
       x1="436.45035"
       y1="66.243118"
       x2="446.1694"
       y2="66.243118" /><linearGradient
       inkscape:collect="always"
       xlink:href="#linearGradient33580"
       id="linearGradient46971"
       gradientUnits="userSpaceOnUse"
       x1="436.45035"
       y1="66.243118"
       x2="446.1694"
       y2="66.243118" /><linearGradient
       inkscape:collect="always"
       xlink:href="#linearGradient33580"
       id="linearGradient46973"
       gradientUnits="userSpaceOnUse"
       x1="436.45035"
       y1="66.243118"
       x2="446.1694"
       y2="66.243118" /></defs><g
     inkscape:label="Layer 1"
     inkscape:groupmode="layer"
     id="layer1"
     transform="translate(-251.50987,62.642945)"><rect
       style="display:inline;fill:url(#linearGradient25829);fill-opacity:1;stroke:#fe9a03;stroke-width:1.376;stroke-linecap:round;stroke-linejoin:round;stroke-dasharray:none;stroke-opacity:1"
       id="rect21532"
       width="270.05612"
       height="269.45975"
       x="252.2785"
       y="-61.954945"
       rx="15"
       ry="15" /><path
       style="display:inline;fill:#fd56a5;fill-opacity:1;stroke:#fc55a2;stroke-width:1.376;stroke-linecap:round;stroke-linejoin:round;stroke-dasharray:none;stroke-opacity:1"
       d="m 252.19787,71.75594 c 29.12761,6.187627 44.04714,34.07197 88.62289,16.669235 l -0.5425,60.721025 -87.6191,20.16014 z"
       id="path25994"
       sodipodi:nodetypes="ccccc" /><path
       style="display:inline;fill:url(#linearGradient15972);fill-opacity:1;stroke:none;stroke-width:1.376;stroke-linecap:round;stroke-linejoin:round;stroke-dasharray:none;stroke-opacity:0.524072"
       d="m 357.28649,-33.326981 c -3.40992,14.366253 -12.5863,13.028 -14.64602,23.235602 0.70608,11.1823431 8.776,15.4712942 7.8029,23.95251 -0.17809,9.024925 -6.84829,11.083259 -7.98507,24.444839 -0.91403,10.032079 5.47602,14.266457 9.35034,19.860755 32.20324,-26.90234 33.02862,-60.4797549 5.47785,-91.493706 z"
       id="path6549"
       sodipodi:nodetypes="cccccc" /><path
       style="display:inline;fill:url(#linearGradient21433);fill-opacity:1;stroke:#000000;stroke-width:1.376;stroke-linecap:round;stroke-linejoin:round;stroke-dasharray:none;stroke-opacity:0.753667"
       d="m 325.38077,-47.606529 c 4.29894,3.500103 4.67446,8.275031 4.72185,11.775134 -2.55194,11.272133 -7.75447,12.81231 -12.20947,24.41987 -2.77704,10.3967736 7.88311,14.5938999 9.20225,25.54947 0.68643,4.977423 0.66418,20.448659 -6.01408,34.821488 -2.4265,3.466051 -2.6122,6.152557 -2.26485,8.653621 1.79566,7.705941 3.13587,7.943802 4.70946,10.458189 10.94994,-0.273886 20.78516,-5.74924 28.75597,-10.642562 -3.64375,-5.429661 -8.92957,-7.846099 -9.72116,-16.064772 -0.39472,-9.484379 7.16327,-16.370795 9.06358,-26.816609 -0.27778,-10.0454437 -8.94749,-17.8427873 -7.67018,-25.232968 3.4315,-12.69106 11.40839,-7.999143 13.60697,-22.265353 -7.49582,-6.786126 -22.12969,-14.171567 -32.18034,-14.655508 z"
       id="path21317"
       sodipodi:nodetypes="ccccccccccccc" /><path
       style="display:inline;fill:url(#linearGradient25839);fill-opacity:1;stroke:#fc0d8a;stroke-width:1.376;stroke-linecap:round;stroke-linejoin:round;stroke-dasharray:none;stroke-opacity:1"
       d="m 252.34329,127.40364 c 43.33214,-28.383926 85.96306,-44.656919 111.79324,-47.133754 67.33592,-9.594017 110.86456,32.730864 158.13199,20.582814 -0.0118,3.41233 -0.11744,60.22766 0.45024,88.10528 0.45386,22.28786 -21.27697,18.21076 -26.80371,18.46196 -10.44646,0.4748 -216.22292,0.27024 -229.48054,0.0993 -2.75505,-0.0625 -13.83248,-3.02198 -13.87818,-13.94742 -0.10279,-24.57677 0.0973,-59.88964 -0.21304,-66.16819 z"
       id="path23713"
       sodipodi:nodetypes="cccsscsc" /><path
       style="display:inline;fill:url(#linearGradient46543);fill-opacity:1;stroke:none;stroke-width:2.276;stroke-linecap:round;stroke-linejoin:round;stroke-dasharray:none;stroke-opacity:0.845389"
       d="m 436.2079,145.61552 -0.31353,-9.66956 -10.27604,-1.99329 0.17083,-116.364972 c 3.84051,-18.8390304 23.68653,-20.4268096 28.38489,-0.120938 l 0.63029,120.9532 -9.76088,-1.58326 0.80156,11.65924 z"
       id="path33328"
       sodipodi:nodetypes="ccccccccc" /><path
       style="fill:none;fill-opacity:0.882728;stroke:url(#linearGradient41107);stroke-width:3.876;stroke-linecap:round;stroke-linejoin:round;stroke-dasharray:none;stroke-opacity:1"
       d="m 426.66699,16.920514 0.78345,115.952926"
       id="path36967"
       sodipodi:nodetypes="cc"
       transform="translate(-1.3124999e-6)" /><path
       style="display:inline;fill:none;fill-opacity:0.882728;stroke:#ffc905;stroke-width:2.276;stroke-linecap:round;stroke-linejoin:round;stroke-dasharray:none;stroke-opacity:0.845389"
       d="m 436.20744,145.61558 -0.31353,-9.66956 -10.27604,-1.99329 0.17083,-116.364981 c 3.84051,-18.8390292 23.68653,-20.4268092 28.38489,-0.120938 l 0.63029,120.953209 -9.76088,-1.58326 0.80156,11.65924 z"
       id="path33328-9"
       sodipodi:nodetypes="ccccccccc" /><path
       style="display:inline;fill:#470300;fill-opacity:0.871227;stroke:#ff0005;stroke-width:1.376;stroke-linecap:round;stroke-linejoin:round;stroke-dasharray:none;stroke-opacity:0.82147"
       d="m 252.32374,105.96719 0.24481,66.55734 c 37.42493,15.28003 62.77429,-7.43458 91.18121,-20.52884 l 40.46111,1.41786 107.49879,18.09238 30.7686,-7.55551 -0.21391,-35.35931 c -24.10181,14.43645 -60.2559,15.62457 -69.60114,15.16374 -29.56219,-0.64937 -52.67093,-18.48209 -78.61305,-15.82362 -19.00931,2.38776 -29.72155,9.49514 -27.4574,22.64709 -30.23411,-18.14778 -60.22609,-34.34811 -94.26902,-44.61113 z"
       id="path33097"
       sodipodi:nodetypes="ccccccccccc" /><path
       style="display:inline;fill:#f2038d;fill-opacity:1;stroke:#f6de5d;stroke-width:1.376;stroke-linecap:round;stroke-linejoin:round;stroke-dasharray:none;stroke-opacity:0.860639"
       d="m 252.34712,171.742 0.18299,22.97574 c -0.0865,1.79903 5.77771,13.34287 21.57136,13.13388 28.8906,0.21478 57.65803,0.42505 82.16035,0.45657 43.2012,-0.23581 94.9455,0.55926 133.97632,-0.5501 35.63221,1.38511 31.18503,-12.22732 31.70499,-13.70871 l 0.47403,-45.12953 c -36.02939,21.68601 -115.32072,-14.58058 -157.8691,-8.17549 -54.08382,9.36451 -87.21075,44.30926 -112.20094,30.99764 z"
       id="path28745"
       sodipodi:nodetypes="ccccccccc" /><path
       style="display:inline;fill:url(#linearGradient32994);fill-opacity:1;stroke:#000005;stroke-width:1.376;stroke-linecap:round;stroke-linejoin:round;stroke-dasharray:none;stroke-opacity:0.686946"
       d="m 303.66634,-46.138189 c 8.27395,-1.960139 14.31273,-2.157149 20.51261,-1.572083 15.70559,9.041905 -6.2953,33.928686 -6.34711,37.8826761 0.1141,7.1601368 8.63239,13.4781285 9.53477,23.8431099 0.68656,4.194178 1.24049,24.433161 -8.50531,41.998364 -0.17068,4.213611 2.3051,8.051397 4.73295,11.930497 -11.61765,1.451791 -21.94917,-1.346002 -33.07352,-7.064329 12.74356,-8.23697 15.73569,-21.99884 21.00518,-35.749286 -1.96434,-11.403574 -12.05718,-30.282143 -13.8085,-33.8982208 -1.10129,-14.0988092 14.66622,-25.6136492 5.94893,-37.3707282 z"
       id="path32986"
       sodipodi:nodetypes="cccccccccc" /><rect
       style="display:inline;fill:none;fill-opacity:1;stroke:#fe9a03;stroke-width:1.376;stroke-linecap:round;stroke-linejoin:round;stroke-dasharray:none;stroke-opacity:1"
       id="rect21532-2"
       width="270.05612"
       height="269.45975"
       x="252.27837"
       y="-61.954945"
       rx="15"
       ry="15" /><ellipse
       style="display:inline;fill:none;fill-opacity:1;stroke:#ffed00;stroke-width:1.42972;stroke-linecap:round;stroke-linejoin:round;stroke-dasharray:none;stroke-opacity:1"
       id="path5453"
       cx="318.8143"
       cy="10.118529"
       rx="57.592461"
       ry="58.279076" /><g
       id="g33574"
       style="stroke:url(#linearGradient33582)"><path
         style="fill:none;fill-opacity:0.882728;stroke:url(#linearGradient46967);stroke-width:2.276;stroke-linecap:round;stroke-linejoin:round;stroke-dasharray:none;stroke-opacity:0.845389"
         d="m 440.26775,23.298549 c 1.06822,3.649184 0.83521,7.58839 0.35592,10.720364 -3.4828,2.021493 -1.82065,5.612945 0.20303,7.216034 1.44851,1.147468 -3.26637,3.944384 -3.23818,6.187609 3.34886,8.822617 2.61185,6.46806 3.90753,9.674064 0.76734,6.111372 0.5823,11.161885 0.20294,15.995948"
         id="path33562"
         sodipodi:nodetypes="ccsccc" /><path
         style="fill:none;fill-opacity:0.882728;stroke:url(#linearGradient46969);stroke-width:2.276;stroke-linecap:round;stroke-linejoin:round;stroke-dasharray:none;stroke-opacity:0.845389"
         d="m 442.11922,56.783827 c 1.44942,-1.365861 3.29793,-2.358541 2.85016,-5.498455"
         id="path33564"
         sodipodi:nodetypes="cc" /><path
         style="fill:none;fill-opacity:0.882728;stroke:url(#linearGradient46971);stroke-width:2.276;stroke-linecap:round;stroke-linejoin:round;stroke-dasharray:none;stroke-opacity:0.845389"
         d="m 438.3839,74.432924 c -0.66774,5.852993 1.30145,8.61574 3.03158,13.299978 1.53452,-1.699574 3.80776,-3.606258 3.45082,-6.646573"
         id="path33566"
         sodipodi:nodetypes="ccc" /><path
         style="fill:none;fill-opacity:0.882728;stroke:url(#linearGradient46973);stroke-width:2.276;stroke-linecap:round;stroke-linejoin:round;stroke-dasharray:none;stroke-opacity:0.845389"
         d="m 441.21442,88.834322 c 0.70911,4.740618 0.51603,7.525021 -1.04128,10.757513 l -0.76343,1.830965 c -1.11366,2.2957 -2.40356,4.53184 -0.74354,7.76489"
         id="path33568"
         sodipodi:nodetypes="cccc" /></g></g></svg>
