<svg id="screenshot" viewBox="-736.5000000000002 1859.25 1199.0000000000005 130.5" width="1199.0000000000005" height="130.5" version="1.1" xmlns="http://www.w3.org/2000/svg" xmlns:xlink="http://www.w3.org/1999/xlink" style="-webkit-print-color-adjust: exact;"><g id="shape-f6807750-fb81-11ec-a7de-a50b7cfa0f8b"><g id="shape-4f6dc340-fb7d-11ec-a7de-a50b7cfa0f8b"><g><path d="M8855 2049 c-133 -20 -272 -88 -329 -164 -141 -184 -133 -435 17
-586 87 -86 171 -125 390 -179 121 -30 198 -65 217 -100 15 -28 12 -93 -6
-118 -64 -91 -268 -67 -499 59 l-71 39 -62 -147 c-58 -136 -61 -147 -45 -159
47 -36 209 -107 298 -131 86 -23 120 -26 245 -26 129 -1 153 2 222 25 139 46
216 110 269 222 38 80 52 155 46 246 -7 112 -37 182 -113 258 -79 79 -168 122
-335 163 -191 47 -269 98 -269 175 0 124 226 139 443 30 l85 -42 60 146 60
147 -64 37 c-159 91 -374 132 -559 105z M17775 2051 c-143 -23 -241 -68 -314
-146 -90 -95 -126 -197 -119 -339 5 -109 32 -179 100 -252 83 -91 189 -143
385 -189 117 -28 186 -55 220 -87 32 -29 39 -78 18 -121 -48 -101 -230 -92
-461 22 -64 32 -117 54 -119 51 -2 -4 -31 -68 -64 -144 l-60 -137 56 -35 c72
-47 177 -90 283 -117 113 -28 323 -30 419 -3 138 38 238 113 290 218 40 79 54
154 49 258 -10 215 -148 346 -442 420 -150 38 -208 64 -246 107 -37 42 -39 81
-4 122 63 75 248 65 423 -23 39 -20 74 -36 77 -37 4 0 33 64 65 142 44 107 56
145 46 151 -86 58 -183 99 -288 122 -86 20 -243 28 -314 17z M36695 2010
c-139 -36 -262 -107 -363 -208 -293 -293 -296 -725 -8 -1017 155 -156 339
-235 551 -235 122 0 227 24 332 75 l71 35 -70 163 c-38 89 -71 163 -72 164 -1
2 -35 -14 -76 -35 -71 -36 -75 -37 -184 -37 -100 0 -117 3 -169 27 -75 35
-166 123 -203 195 -26 52 -29 68 -29 153 0 109 18 156 87 235 137 155 369 193
528 86 l44 -29 67 149 c37 82 70 158 74 168 5 16 -6 26 -67 55 -154 76 -357
98 -513 56z M38271 2010 c-149 -39 -262 -109 -375 -231 -74 -81 -144 -209
-173 -319 -26 -99 -23 -265 6 -360 81 -266 291 -469 552 -534 131 -32 332 -15
455 39 170 75 318 221 394 389 83 183 83 409 1 590 -95 210 -285 369 -505 426
-104 26 -253 26 -355 0z m341 -375 c109 -54 185 -149 215 -269 14 -57 14 -77
4 -135 -22 -121 -107 -233 -221 -289 -49 -24 -66 -27 -160 -27 -95 0 -110 3
-163 28 -113 56 -207 185 -222 304 -17 136 59 288 183 367 71 44 120 56 217
53 75 -3 100 -8 147 -32z M45042 2010 c-211 -56 -394 -209 -493 -415 -159
-328 -39 -726 278 -928 132 -84 242 -117 399 -117 276 0 520 149 657 400 62
113 82 197 82 340 0 143 -20 226 -82 340 -103 190 -302 343 -499 385 -97 21
-252 18 -342 -5z m338 -372 c81 -37 153 -107 192 -186 30 -61 33 -74 33 -162
0 -82 -4 -103 -27 -152 -37 -80 -107 -152 -187 -191 -61 -30 -73 -32 -166 -32
-88 0 -107 3 -157 27 -80 37 -152 107 -191 187 -29 60 -32 74 -32 161 0 82 4
103 27 152 47 100 137 180 241 214 68 22 200 13 267 -18z M100 1285 l0 -725
180 0 180 0 0 245 0 246 62 -3 61 -3 141 -242 141 -243 198 0 c109 0 196 3
194 8 -23 36 -317 565 -317 568 0 3 29 32 65 65 147 138 182 332 93 519 -39
81 -139 183 -224 227 -110 58 -147 63 -476 63 l-298 0 0 -725z m620 354 c65
-37 88 -106 55 -168 -23 -46 -76 -64 -197 -69 l-108 -5 0 130 c0 71 3 133 8
138 4 4 52 5 106 1 73 -5 109 -12 136 -27z M1670 1285 l0 -725 180 0 180 0 0
725 0 725 -180 0 -180 0 0 -725z M2510 1285 l0 -725 180 0 180 0 0 245 0 245
113 0 c131 0 223 18 303 57 287 140 342 546 103 767 -32 30 -82 66 -112 81
-105 51 -138 55 -464 55 l-303 0 0 -725z m608 357 c98 -51 100 -159 3 -216
-24 -14 -60 -20 -143 -24 l-111 -5 6 78 c4 43 7 105 7 138 l0 60 101 -6 c69
-4 113 -12 137 -25z M3950 1285 l0 -725 180 0 180 0 0 245 0 245 113 0 c196 0
310 38 415 135 95 88 142 200 142 340 0 228 -143 412 -366 469 -50 13 -121 16
-363 16 l-301 0 0 -725z m595 365 c77 -29 111 -99 80 -165 -27 -55 -77 -76
-202 -83 l-103 -5 0 138 0 138 98 -6 c54 -3 111 -11 127 -17z M5390 1285 l0
-725 445 0 445 0 0 185 0 185 -265 0 -265 0 0 90 0 90 265 0 265 0 0 180 0
180 -265 0 -265 0 0 90 0 90 265 0 265 0 0 180 0 180 -445 0 -445 0 0 -725z
M6730 1285 l0 -725 180 0 180 0 0 372 c0 266 3 369 11 361 6 -6 120 -172 253
-369 l243 -359 182 -3 181 -2 0 725 0 725 -180 0 -180 0 0 -405 c0 -223 -3
-405 -7 -405 -5 0 -118 182 -253 405 l-245 404 -182 1 -183 0 0 -725z M9950
1830 l0 -180 215 0 215 0 0 -545 0 -545 180 0 180 0 0 545 0 545 215 0 215 0
0 180 0 180 -610 0 -610 0 0 -180z M11580 1285 l0 -725 445 0 445 0 0 185 0
185 -265 0 -265 0 0 90 0 90 265 0 265 0 0 180 0 180 -265 0 -265 0 0 90 0 90
265 0 265 0 0 180 0 180 -445 0 -445 0 0 -725z M12910 1285 l0 -725 185 0 185
0 0 725 0 725 -185 0 -185 0 0 -725z M13750 1285 l0 -725 180 0 180 0 0 370
c0 204 3 370 8 370 4 -1 119 -167 256 -370 l249 -370 178 0 179 0 0 725 0 725
-180 0 -180 0 0 -406 c0 -223 -4 -403 -9 -400 -4 3 -118 185 -252 406 l-244
400 -182 0 -183 0 0 -725z M18860 1830 l0 -180 215 0 215 0 0 -545 0 -545 185
0 185 0 0 545 0 545 210 0 210 0 0 180 0 180 -610 0 -610 0 0 -180z M20490
1285 l0 -725 180 0 180 0 0 245 0 246 62 -3 61 -3 141 -242 141 -243 198 0
c109 0 196 3 194 8 -23 36 -317 565 -317 568 0 3 29 32 65 65 147 138 182 332
93 519 -39 81 -139 183 -224 227 -110 58 -147 63 -476 63 l-298 0 0 -725z
m620 354 c65 -37 88 -106 55 -168 -23 -46 -76 -64 -197 -69 l-108 -5 0 130 c0
71 3 133 8 138 4 4 52 5 106 1 73 -5 109 -12 136 -27z M22060 1285 l0 -725
445 0 445 0 0 185 0 185 -265 0 -265 0 0 90 0 90 265 0 265 0 0 180 0 180
-265 0 -265 0 0 90 0 90 265 0 265 0 0 180 0 180 -445 0 -445 0 0 -725z
M23390 1285 l0 -725 445 0 445 0 0 185 0 185 -260 0 -260 0 0 90 0 90 260 0
260 0 0 180 0 180 -260 0 -260 0 0 90 0 90 260 0 260 0 0 180 0 180 -445 0
-445 0 0 -725z M24660 1830 l0 -180 215 0 215 0 0 -545 0 -545 180 0 180 0 0
545 0 545 215 0 215 0 0 180 0 180 -610 0 -610 0 0 -180z M26232 1993 c3 -10
108 -336 234 -725 l229 -708 156 0 156 0 71 218 c39 119 101 311 138 425 37
114 71 204 75 200 4 -4 68 -196 143 -425 l137 -418 153 0 154 0 46 137 c25 76
129 396 231 712 103 316 189 580 192 588 4 11 -31 13 -189 13 l-193 0 -105
-367 c-138 -487 -131 -466 -140 -456 -4 4 -58 191 -121 415 l-114 408 -196 0
-196 0 -118 -415 c-64 -228 -120 -415 -124 -415 -3 0 -58 186 -122 413 l-115
412 -193 3 c-181 2 -193 1 -189 -15z M29222 1983 c-33 -92 -525 -1409 -529
-1415 -2 -5 84 -8 191 -8 l195 0 19 53 c10 28 29 80 42 115 l22 62 228 0 227
0 40 -112 40 -113 197 -3 c109 -1 195 1 192 6 -4 6 -492 1314 -528 1415 l-10
27 -158 0 -158 0 -10 -27z m231 -742 c31 -87 57 -161 57 -165 0 -3 -54 -6
-120 -6 -66 0 -120 3 -120 6 0 14 114 324 119 324 3 0 32 -72 64 -159z M30500
1285 l0 -725 440 0 440 0 0 185 0 185 -260 0 -260 0 0 540 0 540 -180 0 -180
0 0 -725z M31790 1285 l0 -725 445 0 445 0 0 185 0 185 -265 0 -265 0 0 540 0
540 -180 0 -180 0 0 -725z M33090 1285 l0 -725 248 0 c270 1 414 11 507 35
148 39 298 143 384 266 251 356 122 889 -259 1072 -146 70 -196 77 -565 77
l-315 0 0 -725z m701 333 c114 -52 183 -155 202 -298 18 -137 -23 -243 -122
-316 -74 -54 -152 -74 -297 -74 l-124 0 0 361 0 361 143 -4 c129 -3 147 -6
198 -30z M34800 1285 l0 -725 445 0 445 0 0 185 0 185 -260 0 -260 0 0 90 0
90 260 0 260 0 0 180 0 180 -260 0 -260 0 0 90 0 90 260 0 260 0 0 180 0 180
-445 0 -445 0 0 -725z M39640 1285 l0 -725 180 0 180 0 0 245 0 246 62 -3 61
-3 141 -242 141 -243 198 0 c109 0 196 3 194 8 -23 36 -317 565 -317 568 0 3
29 32 65 65 147 138 182 332 93 519 -39 81 -139 183 -224 227 -110 58 -147 63
-476 63 l-298 0 0 -725z m620 354 c65 -37 88 -106 55 -168 -23 -46 -76 -64
-197 -69 l-108 -5 0 130 c0 71 3 133 8 138 4 4 52 5 106 1 73 -5 109 -12 136
-27z M41672 1983 c-33 -92 -525 -1409 -529 -1415 -2 -5 84 -8 191 -8 l195 0
19 53 c10 28 29 80 42 115 l22 62 228 0 227 0 40 -112 40 -113 197 -3 c109 -1
195 1 192 6 -4 6 -492 1314 -528 1415 l-10 27 -158 0 -158 0 -10 -27z m231
-742 c31 -87 57 -161 57 -165 0 -3 -54 -6 -120 -6 -66 0 -120 3 -120 6 0 14
114 324 119 324 3 0 32 -72 64 -159z M42880 1830 l0 -180 215 0 215 0 0 -545
0 -545 180 0 180 0 0 545 0 545 215 0 215 0 0 180 0 180 -610 0 -610 0 0 -180z
M46420 1286 l0 -726 180 0 180 0 0 245 0 245 58 0 57 0 141 -242 141 -243 197
-3 c108 -1 196 0 196 3 0 2 -72 134 -160 291 l-161 287 23 16 c129 90 195 227
185 386 -8 152 -83 279 -218 370 -128 87 -137 89 -501 93 l-318 3 0 -725z
m544 374 c111 -18 169 -96 130 -176 -30 -61 -67 -76 -201 -82 l-116 -5 6 78
c4 43 7 104 7 137 l0 58 58 0 c31 0 83 -4 116 -10z" transform="translate(-736.5000000000002, 1891.75) scale(0.25, 0.25) translate(0.000000,260.000000) scale(0.100000,-0.100000)" fill="#e32846" stroke="none"/></g></g><g id="shape-3b4a70d1-fb81-11ec-a7de-a50b7cfa0f8b"><rect rx="0" ry="0" x="-734.5000000000002" y="1859.75" transform="matrix(1,0,0,1,0,0)" width="1196" height="27" style="fill: rgb(236, 122, 41); fill-opacity: 1;"/></g><g id="shape-820bb100-fb81-11ec-a7de-a50b7cfa0f8b"><path d="M-735,1962.75L461,1962.75L461,1989.75L-735,1989.75L-735,1962.75Z" style="fill: rgb(236, 122, 41); fill-opacity: 1;"/></g></g></svg>